<?xml version="1.0" encoding="UTF-8" standalone="no"?><!DOCTYPE svg PUBLIC "-//W3C//DTD SVG 1.1//EN" "http://www.w3.org/Graphics/SVG/1.1/DTD/svg11.dtd"><svg width="100%" height="100%" viewBox="0 0 157 174" version="1.1" xmlns="http://www.w3.org/2000/svg" xmlns:xlink="http://www.w3.org/1999/xlink" xml:space="preserve" xmlns:serif="http://www.serif.com/" style="fill-rule:evenodd;clip-rule:evenodd;stroke-linejoin:round;stroke-miterlimit:2;"><g><clipPath id="_clip1"><rect x="0" y="0.003" width="156" height="173.25"/></clipPath><g clip-path="url(#_clip1)"><rect x="0.519" y="128.197" width="155.482" height="45.056" style="fill:#53924f;fill-rule:nonzero;"/><path d="M14.143,0.643l0.036,4.994l-3.839,0.036l0.176,20.001l-6.465,0.06l-0.177,-20.002l-3.827,0.036l-0.047,-4.994l14.143,-0.131Z" style="fill:#fff;fill-rule:nonzero;"/><path d="M30.855,0.489l0.224,24.996l-6.466,0.059l-0.094,-10.499l-1.943,0.024l0.094,10.499l-6.465,0.059l-0.224,-25.007l6.466,-0.06l0.082,8.945l1.931,-0.023l-0.07,-8.933l6.465,-0.06Z" style="fill:#fff;fill-rule:nonzero;"/><path d="M33.091,0.466l10.787,-0.095l0.047,5.006l-4.322,0.035l0.047,4.746l4.039,-0.048l0.048,4.757l-4.051,0.036l0.047,5.505l4.757,-0.048l0.047,5.006l-11.222,0.095l-0.224,-24.995Z" style="fill:#fff;fill-rule:nonzero;"/><path d="M65.629,10.158l0.142,15.102c0.412,0.023 0.777,0.035 1.071,0.023c1.343,-0.012 2.273,-0.367 2.779,-1.067c0.507,-0.7 0.766,-2.148 0.742,-4.354l-0.047,-4.876c-0.023,-2.029 -0.33,-3.345 -0.942,-3.95c-0.601,-0.605 -1.861,-0.902 -3.757,-0.878m-14.661,-10.013l14.697,-0.142c3.98,-0.036 7.03,0.261 9.174,0.901c2.143,0.641 3.757,1.578 4.84,2.812c1.083,1.234 1.825,2.74 2.225,4.508c0.401,1.768 0.613,4.508 0.648,8.221l0.047,5.173c0.035,3.784 -0.306,6.548 -1.036,8.292c-0.73,1.744 -2.073,3.084 -4.039,4.033c-1.967,0.949 -4.546,1.436 -7.737,1.46l-3.922,0.035l0.212,23.905l-14.591,0.13l-0.518,-59.328Z" style="fill:#fff;fill-rule:nonzero;"/><path d="M100.639,10.407l-0,13.192c1.648,-0 2.791,-0.238 3.45,-0.712c0.66,-0.475 0.989,-2.017 0.989,-4.639l0,-3.262c0,-1.886 -0.318,-3.12 -0.953,-3.701c-0.636,-0.593 -1.802,-0.878 -3.486,-0.878Zm-14.591,-10.155l10.328,-0c6.888,-0 11.552,0.285 13.989,0.842c2.439,0.558 4.428,2.005 5.959,4.307c1.532,2.313 2.309,5.99 2.309,11.056c-0,4.615 -0.542,7.723 -1.626,9.313c-1.083,1.589 -3.226,2.538 -6.406,2.859c2.885,0.759 4.829,1.767 5.83,3.037c0.989,1.269 1.613,2.432 1.848,3.499c0.248,1.068 0.366,3.986 0.366,8.779l-0,15.659l-13.555,0l0,-19.716c0,-3.179 -0.236,-5.149 -0.719,-5.896c-0.471,-0.759 -1.719,-1.139 -3.72,-1.139l-0,26.763l-14.592,0l0,-59.363l-0.012,-0Z" style="fill:#fff;fill-rule:nonzero;"/><path d="M141.82,16.243c0,-2.681 -0.141,-4.389 -0.424,-5.136c-0.282,-0.748 -0.859,-1.115 -1.731,-1.115c-0.742,-0 -1.307,0.308 -1.696,0.913c-0.388,0.605 -0.588,2.384 -0.588,5.35l-0,26.859c-0,3.345 0.129,5.397 0.388,6.18c0.26,0.783 0.859,1.175 1.802,1.175c0.942,-0 1.578,-0.451 1.849,-1.353c0.271,-0.901 0.4,-3.049 0.4,-6.43l0,-26.443Zm14.143,18.898c0,5.778 -0.129,9.871 -0.388,12.279c-0.259,2.408 -1.06,4.603 -2.414,6.596c-1.354,1.993 -3.18,3.523 -5.5,4.591c-2.308,1.068 -4.993,1.601 -8.066,1.601c-3.074,0 -5.523,-0.498 -7.843,-1.506c-2.321,-1.009 -4.181,-2.515 -5.595,-4.532c-1.413,-2.017 -2.249,-4.211 -2.52,-6.572c-0.27,-2.373 -0.4,-6.513 -0.4,-12.433l-0,-9.846c-0,-5.778 0.13,-9.87 0.389,-12.279c0.259,-2.396 1.06,-4.603 2.414,-6.584c1.354,-1.993 3.18,-3.523 5.487,-4.591c2.309,-1.067 4.994,-1.601 8.067,-1.601c3.074,-0 5.523,0.498 7.843,1.506c2.321,1.009 4.181,2.515 5.594,4.532c1.413,2.017 2.25,4.2 2.52,6.572c0.271,2.373 0.401,6.513 0.401,12.433l-0,9.846l0.011,-0.012Z" style="fill:#fff;fill-rule:nonzero;"/><path d="M30.889,83.02l-13.025,0l0,-4.223c0,-1.969 -0.164,-3.226 -0.494,-3.772c-0.33,-0.546 -0.883,-0.807 -1.661,-0.807c-0.847,0 -1.483,0.368 -1.919,1.092c-0.436,0.723 -0.648,1.827 -0.648,3.321c0,1.899 0.247,3.334 0.73,4.295c0.46,0.961 1.79,2.123 3.969,3.487c6.241,3.915 10.175,7.142 11.8,9.645c1.625,2.515 2.426,6.573 2.426,12.16c-0,4.069 -0.448,7.058 -1.343,8.993c-0.907,1.921 -2.638,3.534 -5.217,4.839c-2.579,1.305 -5.582,1.958 -8.997,1.958c-3.756,-0 -6.96,-0.747 -9.609,-2.254c-2.65,-1.507 -4.393,-3.417 -5.217,-5.742c-0.824,-2.325 -1.237,-5.635 -1.237,-9.906l0,-3.736l13.025,-0l-0,6.939c-0,2.136 0.177,3.512 0.553,4.129c0.365,0.605 1.013,0.914 1.955,0.914c0.942,-0 1.625,-0.392 2.085,-1.163c0.459,-0.772 0.683,-1.922 0.683,-3.452c-0,-3.358 -0.436,-5.552 -1.296,-6.584c-0.883,-1.032 -3.073,-2.765 -6.559,-5.184c-3.486,-2.445 -5.794,-4.224 -6.936,-5.327c-1.131,-1.104 -2.073,-2.634 -2.815,-4.579c-0.742,-1.946 -1.119,-4.437 -1.119,-7.474c0,-4.366 0.53,-7.569 1.578,-9.586c1.06,-2.016 2.756,-3.606 5.123,-4.745c2.355,-1.139 5.193,-1.708 8.526,-1.708c3.639,-0 6.748,0.617 9.315,1.862c2.567,1.246 4.263,2.812 5.099,4.71c0.836,1.886 1.249,5.101 1.249,9.633l-0,2.254l-0.024,0.011Z" style="fill:#fff;fill-rule:nonzero;"/><path d="M68.232,64.563l0,59.34l-14.591,-0l0,-24.925l-4.369,0l0,24.925l-14.59,-0l-0,-59.34l14.59,0l0,21.223l4.369,0l0,-21.223l14.591,0Z" style="fill:#fff;fill-rule:nonzero;"/><path d="M139.006,74.848l-0,15.066c0.411,0.024 0.777,0.036 1.072,0.036c1.33,-0 2.26,-0.345 2.778,-1.044c0.519,-0.7 0.778,-2.136 0.778,-4.33l0,-4.864c0,-2.017 -0.295,-3.334 -0.895,-3.951c-0.601,-0.604 -1.849,-0.913 -3.733,-0.913Zm-14.555,-10.131l14.661,-0c3.969,-0 7.007,0.332 9.138,0.984c2.132,0.653 3.733,1.614 4.805,2.848c1.072,1.245 1.801,2.752 2.179,4.519c0.376,1.768 0.576,4.508 0.576,8.21l0,5.16c0,3.773 -0.365,6.537 -1.107,8.257c-0.741,1.732 -2.096,3.061 -4.062,3.986c-1.979,0.926 -4.546,1.388 -7.725,1.388l-3.91,0l-0,23.833l-14.555,0l-0,-59.185Z" style="fill:#fff;fill-rule:nonzero;"/><path d="M127.196,105.087c0.295,-3.785 -0.612,-24.38 -8.055,-31.948c-4.203,-4.271 -12.564,-8.008 -23.116,-8.008c-10.552,0 -17.924,3.737 -22.116,8.008c-7.454,7.568 -8.349,28.163 -8.055,31.948c0.671,0.486 0.636,0.462 1.872,0.118c-0.294,0.166 0.542,0.261 0.542,0.261c-0.506,0.831 -0.871,14.141 2.19,17.831c2.638,3.167 9.292,-8.625 25.579,-8.625c16.286,-0 22.939,11.792 25.578,8.625c3.061,-3.69 3.697,-17 3.191,-17.831" style="fill:#f5f5f6;fill-rule:nonzero;"/><path d="M123.615,104.422c-1.013,-0.403 -2.155,-0.937 -3.427,-1.518c-5.57,-2.562 -13.213,-6.074 -23.199,-6.074l-0.235,0c-9.987,0 -16.617,3.512 -22.199,6.074c-2.838,1.305 -5.087,2.337 -6.559,2.337c-0.448,-0 -0.801,-0.095 -1.095,-0.273c-0.318,-4.674 0.906,-24.462 8.007,-31.663c3.78,-3.844 10.799,-7.936 21.963,-7.936c11.176,-0 18.889,4.425 22.964,7.936c7.937,6.845 5.794,21.057 6.359,28.946" style="fill:#fff;fill-rule:nonzero;"/><path d="M123.615,104.423c-14.261,-6.217 -27.51,-9.787 -42.454,-3.18c-3.415,1.436 -6.7,3.263 -10.21,4.651c-1.672,0.628 -3.533,1.186 -5.311,-0.131c-0.33,-5.136 0.224,-10.059 0.989,-15.078c1.661,-10.226 4.805,-19.396 15.121,-23.667c11.153,-4.674 24.518,-3.689 34.752,2.741c4.121,2.467 7.655,6.453 8.714,11.269c1.861,6.964 0.884,14.142 0.99,21.224c-0.448,-4.698 -0.248,-9.431 -0.777,-14.082c-0.495,-4.603 -1.65,-9.312 -4.57,-12.717c-9.644,-9.562 -25.86,-11.223 -38.002,-5.944c-9.362,3.892 -11.847,12.302 -13.495,21.639c-0.754,4.532 -1.225,9.265 -1.131,13.726l-0.612,-1.044c0.541,0.225 1.731,-0.131 2.437,-0.392c3.439,-1.293 6.725,-3.048 10.211,-4.401c15.591,-6.359 29.24,-2.325 43.336,5.386l0.012,0Z" style="fill:#365888;fill-rule:nonzero;"/><path d="M66.653,109.299c0.177,0.901 0.412,1.791 0.671,2.669c0.483,1.768 1.107,3.488 1.814,5.125c0.353,0.818 0.754,1.601 1.189,2.325c0.224,0.356 0.46,0.7 0.707,0.997c0.118,0.154 0.259,0.296 0.365,0.415c0.059,0.059 0.106,0.071 0.106,0.059c-0.023,-0.024 0.024,-0.012 0.283,-0.095c0.235,-0.083 0.577,-0.249 0.907,-0.451c0.683,-0.415 1.413,-0.948 2.143,-1.494c2.967,-2.207 6.3,-4.33 9.974,-5.742c1.837,-0.688 3.745,-1.222 5.688,-1.554c1.944,-0.321 3.91,-0.463 5.865,-0.451c3.909,0.036 7.866,0.795 11.505,2.29c3.627,1.494 6.936,3.666 9.845,5.86c0.73,0.522 1.46,1.044 2.085,1.364c0.306,0.166 0.589,0.249 0.671,0.261c0.071,0 0,0.084 0.141,-0.024c0.448,-0.45 0.919,-1.174 1.272,-1.933c0.377,-0.771 0.695,-1.59 0.977,-2.444c0.577,-1.696 1.025,-3.476 1.39,-5.279c0.188,-0.901 0.353,-1.804 0.483,-2.717c0.118,-0.913 0.306,-1.838 0.153,-2.752c0.247,0.415 0.294,0.902 0.365,1.364c0.071,0.463 0.118,0.937 0.153,1.412c0.059,0.937 0.083,1.886 0.083,2.836c-0.036,1.886 -0.189,3.783 -0.518,5.682c-0.178,0.949 -0.413,1.898 -0.731,2.859c-0.329,0.96 -0.707,1.91 -1.448,2.895c-0.448,0.604 -1.413,1.138 -2.262,1.138c-0.847,0.024 -1.46,-0.19 -1.989,-0.391c-1.049,-0.427 -1.873,-0.937 -2.685,-1.424c-1.614,-0.961 -3.121,-1.933 -4.676,-2.776c-1.555,-0.842 -3.132,-1.566 -4.769,-2.147c-3.251,-1.174 -6.654,-1.768 -10.116,-1.792c-3.45,-0.035 -6.889,0.463 -10.139,1.602c-1.638,0.546 -3.239,1.222 -4.793,2.04c-1.566,0.819 -3.062,1.768 -4.652,2.729c-0.8,0.487 -1.601,0.985 -2.543,1.447c-0.483,0.226 -0.99,0.463 -1.637,0.618c-0.318,0.082 -0.707,0.13 -1.119,0.106c-0.412,-0.024 -0.895,-0.142 -1.296,-0.356c-0.412,-0.225 -0.73,-0.522 -0.965,-0.818c-0.177,-0.249 -0.33,-0.463 -0.471,-0.7c-0.283,-0.463 -0.507,-0.926 -0.719,-1.388c-0.412,-0.926 -0.718,-1.863 -0.977,-2.8c-0.506,-1.874 -0.789,-3.761 -0.966,-5.647c-0.07,-0.949 -0.106,-1.898 -0.094,-2.835c0,-0.475 0.035,-0.949 0.094,-1.424" style="fill:#365888;fill-rule:nonzero;"/><path d="M66.653,109.299c1.048,3.974 2.19,8.305 4.863,11.448c-0.012,0.024 -0.012,-0.071 -0.141,0.083l0.023,0.143c0.001,-0 -0.058,-0.024 -0.011,-0.167c0.047,-0.07 0.07,-0.059 0.082,-0.07c0.024,-0 0.071,-0.024 0.094,-0.024c0.848,-0.261 1.979,-1.175 2.709,-1.685c6.183,-4.924 13.708,-8.399 21.727,-8.293c6.831,-0.142 13.531,2.207 19.137,6.099c1.778,1.091 3.839,3 5.535,3.594c0.093,0.024 0.235,0.142 0.258,0.201c0,0.024 0.036,0.036 -0.047,-0.059c-0.058,-0.071 -0.247,-0.166 -0.364,-0.142c-0.13,0.024 -0.13,0.036 -0.153,0.048c-0.036,0.011 -0,-0 0.011,-0.012l-0.047,0.047c2.685,-3.63 3.309,-8.494 4.062,-12.872c0.39,-1.388 -0.624,-5.243 -0.777,-6.631l1.72,4.46c0.812,2.112 0.565,3.939 0.683,5.897c-0,2.799 -0.471,5.895 -1.272,8.589c-2.343,7.58 -7.242,3.606 -11.823,0.877c-7.867,-5.125 -17.982,-6.572 -26.862,-3.487c-3.603,1.115 -6.736,3.262 -10.057,5.1c-2.084,1.365 -5.511,2.836 -7.16,0.06c-2.532,-4.342 -3.062,-9.645 -2.791,-14.568c-0.141,3.784 0.224,7.664 1.566,11.211c0.919,2.728 2.308,5.634 5.665,4.199c3.98,-1.922 8.302,-5.279 12.565,-6.608c7.207,-2.586 15.392,-2.325 22.445,0.665c3.51,1.423 6.642,3.784 9.963,5.457c3.097,1.601 4.711,-0.285 5.583,-3.203c0.753,-2.622 1.2,-5.576 1.188,-8.304c-0.082,-1.448 0.048,-4.07 -0.529,-5.386l0.895,-0.332c0.188,1.446 -0.153,2.716 -0.366,4.116c-0.541,3.333 -1.413,6.596 -2.849,9.669c-0.365,0.652 -0.742,1.387 -1.39,1.862c-0.224,0.142 -0.553,-0 -0.636,-0.166c0.024,0.059 0.153,0.166 0.236,0.178c-3.698,-1.815 -7.337,-5.315 -11.529,-7.035c-8.043,-3.701 -17.711,-3.785 -25.79,-0.119c-3.58,1.578 -6.771,3.927 -9.998,6.122c-0.224,0.166 -0.483,0.296 -0.742,0.415l-0.389,0.19c-0.118,0.059 -0.259,0.095 -0.365,0.119c0,-0 0.012,-0 0.059,-0.06c0.035,-0.13 -0.012,-0.13 0,-0.142l0.024,0.142c-0.142,0.166 -0.154,0.072 -0.177,0.083c-0.471,-0.284 -0.777,-0.937 -1.119,-1.376c-1.849,-3.191 -2.885,-6.762 -3.686,-10.356l-0.023,0.023Z" style="fill:#fff;fill-rule:nonzero;"/><path d="M99.11,65.784c-0.001,-1.116 -1.39,-1.116 -3.098,-1.116c-1.707,0 -3.097,0 -3.097,1.116c0,1.115 1.39,1.115 3.097,1.115c1.708,-0 3.097,-0 3.097,-1.115Z" style="fill:#fff;fill-rule:nonzero;"/><path d="M69.727,107.578c1.083,2.954 2.013,6.074 3.297,8.779c1.978,-0.83 3.509,-3.061 5.452,-4.271c4.887,-3.559 11.223,-4.46 17.064,-3.665c-7.254,0.094 -14.414,2.253 -19.536,7.592c-0.99,0.901 -3.274,2.764 -4.217,0.819c-1.177,-2.99 -1.754,-6.122 -2.06,-9.266l-0,0.012Z" style="fill:#365888;fill-rule:nonzero;"/><path d="M96.013,79.131l-0,-9.598c-0,0 -6.371,-1.103 -14.592,3.927" style="fill:#fff;fill-rule:nonzero;"/><path d="M96.013,79.131c-0.542,-3.179 -0.672,-6.382 -0.707,-9.597l0.589,0.7c-4.97,-0.487 -9.963,1.198 -14.474,3.226c4.311,-3.297 9.834,-5.338 15.31,-4.543c-0.024,3.416 -0.13,6.821 -0.706,10.214l-0.012,-0Z" style="fill:#365888;fill-rule:nonzero;"/><path d="M122.967,109.322c-3.356,-2.919 -7.714,-3.666 -11.812,-5.006c4.275,-0.724 9.951,0.652 11.812,5.006Z" style="fill:#365888;fill-rule:nonzero;"/><path d="M122.779,111.968c-2.308,-2.206 -5.334,-2.824 -8.161,-4.057c3.073,-0.843 7.501,0.582 8.161,4.057Z" style="fill:#365888;fill-rule:nonzero;"/><path d="M96.236,93.462l-0.494,-0.071l-0.389,-0.072l-0.224,-0.071c-0.177,-0.035 -0.247,-0.059 -0.318,-0.095c-0.212,-0.071 -0.388,-0.154 -0.577,-0.249c-0.082,-0.023 -0.141,-0.059 -0.2,-0.083c-0.106,-0.06 -0.165,-0.107 -0.212,-0.154c-0.023,-0 -0.094,-0.047 -0.165,-0.107l-0.058,0l-0.142,-0.13c-0.141,-0.119 -0.259,-0.214 -0.365,-0.321l-0.094,-0.107c-0,0 -0.059,-0.059 -0.106,-0.106l-0.059,-0.048c-0.071,-0.083 -0.106,-0.142 -0.141,-0.201c-0.153,-0.19 -0.283,-0.38 -0.401,-0.581c-0.047,-0.06 -0.082,-0.108 -0.106,-0.167c-0.059,-0.13 -0.082,-0.202 -0.094,-0.261c-0.035,-0.047 -0.118,-0.237 -0.177,-0.439l-0.035,-0.071c-0.047,-0.142 -0.071,-0.237 -0.094,-0.332l-0.047,-0.214l-0,-0.023l-0.012,-0.083c-0.048,-0.273 -0.071,-0.522 -0.071,-0.783c0,-0.143 0,-0.285 0.012,-0.416c0.023,-0.118 0.035,-0.178 0.047,-0.225c0,-0.083 0.024,-0.237 0.047,-0.379c0.047,-0.273 0.106,-0.44 0.165,-0.594l0.082,-0.154c0.201,-0.545 0.554,-1.103 1.025,-1.578l0.07,-0.083c0.13,-0.13 0.271,-0.249 0.425,-0.356l0.164,-0.083c0,-0 0.059,-0.059 0.154,-0.119l0.106,-0.082l0.117,-0.06c0.071,-0.035 0.153,-0.083 0.236,-0.119l0.247,-0.118c0.212,-0.083 0.424,-0.166 0.636,-0.214l0.165,-0.047l0.024,-0l0.058,-0.012c0.212,-0.035 0.401,-0.071 0.589,-0.083l0.13,0c0.07,-0.024 0.141,-0.036 0.223,-0.036c0.118,0 0.248,0.024 0.377,0.036l0.106,0c0.495,0.083 0.825,0.166 1.131,0.273l0.153,0.059l0.224,0.083l-0,0.024c0.082,0.035 0.153,0.071 0.223,0.107l0.177,0.13c0,0 0.059,0.024 0.106,0.047l0.012,0l0.294,0.214c0.177,0.143 0.342,0.285 0.495,0.439l0.035,-0.023l0.188,0.213l0.271,0.392l0.2,0.308c0,0 0.083,0.119 0.118,0.178l0.059,0.166c0.33,0.652 0.507,1.376 0.507,2.112c-0,0.225 -0.024,0.438 -0.048,0.628l0,0.107l-0.035,0.178c-0.047,0.285 -0.141,0.605 -0.259,0.902c-0.059,0.142 -0.106,0.237 -0.165,0.344c-0.035,0.106 -0.094,0.225 -0.188,0.344c-0.118,0.19 -0.271,0.392 -0.436,0.593l-0.141,0.166c-0.177,0.19 -0.365,0.344 -0.554,0.498c-0.058,0.059 -0.106,0.095 -0.153,0.131c-0.176,0.118 -0.33,0.201 -0.471,0.273c-0.188,0.118 -0.282,0.154 -0.376,0.201l-0.2,0.072c-0,-0 -0.118,0.047 -0.307,0.094l-0.224,0.071c-0.212,0.048 -0.4,0.084 -0.588,0.096c-0.141,0.023 -0.224,0.047 -0.306,0.047l-0.012,-0l-0,0.059l-0.366,-0.024l0.012,-0.011Z" style="fill:#fff;fill-rule:nonzero;"/><path d="M102.89,87.198c-0.001,-1.008 -0.248,-2.005 -0.73,-2.942l-0.06,-0.178c-0.047,-0.083 -0.094,-0.166 -0.152,-0.237l-0.095,-0.143c-0.058,-0.095 -0.118,-0.177 -0.2,-0.308l-0.4,-0.57l-0.036,0.036c0,0 -0.011,0 -0.023,-0.012c-0.271,-0.296 -0.577,-0.581 -0.907,-0.842l-0.306,-0.226c-0.095,-0.059 -0.188,-0.106 -0.295,-0.166l-0.188,-0.154c-0.13,-0.071 -0.259,-0.131 -0.471,-0.225l-0.223,0.498l0.093,-0.557l-0.165,-0.06c-0.423,-0.166 -0.882,-0.285 -1.495,-0.368l-0.141,-0.023c-0.318,-0.048 -0.731,-0.143 -0.931,-0.024l-0.141,-0.035l-0.082,-0c-0.259,0.023 -0.519,0.059 -0.777,0.106l-0.142,0.047c-0,0 -0.023,0.012 -0.035,0.024l-0.059,0l-0.142,0.024c-0.306,0.083 -0.588,0.178 -0.859,0.297l-0.13,0.059l0.189,0.391l-0.353,-0.32c-0.13,0.059 -0.26,0.119 -0.377,0.19l-0.166,0.095l0,0.047c-0.176,0.095 -0.318,0.19 -0.4,0.261l-0.176,0.095c-0.201,0.154 -0.401,0.32 -0.577,0.499l-0.094,0.106c-0.649,0.653 -1.143,1.424 -1.438,2.219l-0.093,0.165c-0.083,0.226 -0.142,0.451 -0.225,0.807c-0.046,0.214 -0.07,0.416 -0.093,0.617c-0.024,0.06 -0.036,0.13 -0.059,0.226c-0.012,0.189 -0.024,0.391 -0.024,0.581c0,0.344 0.023,0.688 0.083,1.02l0.047,0.154c0,0 0.011,0.096 0.023,0.131l0,0.024l0.035,0.178c0.036,0.13 0.071,0.261 0.106,0.391l0.083,0.166c0.082,0.273 0.188,0.522 0.271,0.676c0.012,0.072 0.047,0.155 0.106,0.285c0.035,0.071 0.083,0.131 0.153,0.225c0.165,0.285 0.341,0.546 0.577,0.843c0.047,0.071 0.082,0.13 0.13,0.189l0.117,0.108c0.083,0.094 0.153,0.165 0.165,0.165l0.094,0.119c0.154,0.142 0.307,0.285 0.542,0.463l0.047,0.083l0.071,-0c0.141,0.106 0.294,0.202 0.401,0.261c0.058,0.047 0.117,0.106 0.235,0.178c0.071,0.035 0.141,0.071 0.271,0.118c0.259,0.131 0.518,0.249 0.836,0.368c0.071,0.036 0.141,0.071 0.341,0.107l0.048,-0l0.435,0.118l0.024,-0.106l0.129,0.082l0,0.06c0.083,0.012 0.165,0.036 0.248,0.048l0.718,0.094l-0,-0.047c0.094,-0 0.212,-0 0.306,-0.012l0.189,-0c0.105,-0 0.2,-0.023 0.411,-0.059c0.26,-0.036 0.531,-0.072 0.801,-0.131l0.318,-0.094c0.177,-0.048 0.354,-0.096 0.424,-0.143l0.271,-0.095c0.13,-0.059 0.247,-0.107 0.448,-0.225c0.023,-0.012 0.047,-0.036 0.059,-0.059c0.199,-0.108 0.412,-0.214 0.647,-0.38c0.059,-0.048 0.106,-0.095 0.2,-0.178c0.271,-0.202 0.519,-0.427 0.742,-0.665l0.2,-0.237c0.236,-0.273 0.448,-0.569 0.636,-0.854c0.095,-0.131 0.165,-0.249 0.2,-0.368l0.048,-0.095c0.07,-0.13 0.153,-0.261 0.223,-0.439c0.165,-0.403 0.295,-0.842 0.366,-1.245l0.058,-0.261l0,-0.036c0.036,-0.297 0.071,-0.617 0.071,-0.949l0.023,0.024Z" style="fill:#365888;fill-rule:nonzero;"/><path d="M90.443,87.447c-0.001,-3.191 2.567,-5.777 5.735,-5.777c3.167,-0 5.734,2.586 5.734,5.777c0,3.191 -2.567,5.777 -5.734,5.777c-3.168,0 -5.736,-2.586 -5.736,-5.777Z" style="fill:#fff;fill-rule:nonzero;"/><path d="M95.599,85.797c-0.177,-0.32 -0.613,-0.415 -0.966,-0.202c-0.354,0.202 -0.483,0.629 -0.306,0.95c0.176,0.32 0.612,0.415 0.965,0.201c0.353,-0.201 0.483,-0.629 0.307,-0.949Z" style="fill:#dfe3ee;fill-rule:nonzero;"/><path d="M95.048,88.762c-0.178,0.321 -0.048,0.736 0.305,0.95c0.354,0.202 0.778,0.106 0.966,-0.202c0.177,-0.32 0.047,-0.736 -0.306,-0.949c-0.353,-0.202 -0.777,-0.107 -0.966,0.201Z" style="fill:#dfe3ee;fill-rule:nonzero;"/><path d="M96.741,89.083c0.176,0.321 0.612,0.415 0.965,0.202c0.354,-0.202 0.483,-0.629 0.306,-0.949c-0.176,-0.321 -0.612,-0.415 -0.965,-0.202c-0.353,0.202 -0.483,0.629 -0.306,0.949Z" style="fill:#dfe3ee;fill-rule:nonzero;"/><path d="M98.838,85.857c0.165,-0.285 0.012,-0.688 -0.341,-0.89c-0.354,-0.201 -0.766,-0.142 -0.931,0.142c-0.164,0.285 -0.011,0.689 0.342,0.89c0.353,0.202 0.765,0.143 0.93,-0.142Z" style="fill:#dfe3ee;fill-rule:nonzero;"/><path d="M97.742,84.516c0.165,-0.285 0.012,-0.689 -0.341,-0.89c-0.353,-0.201 -0.766,-0.142 -0.93,0.154c-0.165,0.285 -0.012,0.689 0.341,0.89c0.354,0.201 0.765,0.142 0.93,-0.154Z" style="fill:#dfe3ee;fill-rule:nonzero;"/><path d="M92.868,87.529c-0.33,-0 -0.589,0.332 -0.589,0.735c0,0.404 0.271,0.736 0.589,0.736c0.318,0 0.589,-0.332 0.589,-0.736c-0,-0.403 -0.271,-0.735 -0.589,-0.735Z" style="fill:#dfe3ee;fill-rule:nonzero;"/><path d="M98.273,88.229c0,-0.403 0.271,-0.736 0.589,-0.736c0.318,0 0.589,0.333 0.589,0.736c-0,0.404 -0.271,0.736 -0.589,0.736c-0.318,-0 -0.589,-0.332 -0.589,-0.736Z" style="fill:#aebbd8;fill-rule:nonzero;"/><path d="M93.503,89.024c-0.165,0.285 -0.012,0.689 0.342,0.89c0.353,0.201 0.764,0.142 0.93,-0.142c0.164,-0.285 0.011,-0.689 -0.342,-0.89c-0.353,-0.202 -0.766,-0.142 -0.931,0.154" style="fill:#aebbd8;fill-rule:nonzero;"/><path d="M96.201,90.555c0.165,0.285 0.578,0.356 0.931,0.142c0.353,-0.201 0.506,-0.605 0.341,-0.889c-0.165,-0.285 -0.577,-0.356 -0.931,-0.155c-0.353,0.202 -0.506,0.606 -0.341,0.89" style="fill:#aebbd8;fill-rule:nonzero;"/><path d="M97.898,90.269c0.165,0.285 0.576,0.356 0.93,0.155c0.353,-0.202 0.506,-0.606 0.341,-0.89c-0.164,-0.285 -0.577,-0.356 -0.93,-0.154c-0.353,0.201 -0.506,0.605 -0.341,0.889Z" style="fill:#aebbd8;fill-rule:nonzero;"/><path d="M99.475,87.352c0.329,-0 0.588,-0.333 0.588,-0.735c0.001,-0.404 -0.27,-0.736 -0.588,-0.736c-0.318,-0 -0.589,0.332 -0.589,0.736c0,0.402 0.271,0.735 0.589,0.735Z" style="fill:#aebbd8;fill-rule:nonzero;"/><path d="M94.598,90.364c-0.164,0.285 -0.011,0.689 0.342,0.891c0.354,0.201 0.765,0.141 0.93,-0.143c0.165,-0.285 0.012,-0.688 -0.341,-0.89c-0.353,-0.201 -0.766,-0.142 -0.931,0.154" style="fill:#aebbd8;fill-rule:nonzero;"/><path d="M92.984,90.08c-0.224,0.202 -0.177,0.593 0.094,0.878c0.283,0.285 0.695,0.368 0.919,0.166c0.223,-0.202 0.176,-0.593 -0.095,-0.877c-0.283,-0.285 -0.694,-0.369 -0.918,-0.167Z" style="fill:#aebbd8;fill-rule:nonzero;"/><path d="M99.355,84.801c0.224,-0.202 0.177,-0.593 -0.094,-0.878c-0.283,-0.285 -0.695,-0.368 -0.919,-0.166c-0.223,0.202 -0.176,0.593 0.095,0.877c0.282,0.285 0.682,0.368 0.918,0.167Z" style="fill:#aebbd8;fill-rule:nonzero;"/><path d="M95.435,87.435c-0.001,-0.403 0.329,-0.735 0.73,-0.735c0.4,-0 0.73,0.332 0.73,0.735c-0,0.403 -0.33,0.736 -0.73,0.736c-0.401,-0 -0.731,-0.333 -0.731,-0.736Z" style="fill:#f1f1f4;fill-rule:nonzero;"/><path d="M97.295,86.117c0.176,-0.32 0.047,-0.735 -0.306,-0.949c-0.354,-0.201 -0.778,-0.106 -0.966,0.202c-0.177,0.32 -0.047,0.736 0.306,0.949c0.353,0.202 0.777,0.107 0.965,-0.202Z" style="fill:#f1f1f4;fill-rule:nonzero;"/><path d="M96.764,85.418c-0.176,-0.321 -0.612,-0.415 -0.965,-0.202c-0.353,0.202 -0.483,0.629 -0.307,0.949c0.177,0.32 0.613,0.416 0.966,0.202c0.354,-0.202 0.483,-0.629 0.306,-0.949Z" style="fill:#f1f1f4;fill-rule:nonzero;"/><path d="M93.809,87.862c-0,-0.404 0.294,-0.736 0.659,-0.736c0.365,-0 0.66,0.332 0.66,0.736c-0,0.403 -0.295,0.735 -0.66,0.735c-0.365,-0 -0.659,-0.332 -0.659,-0.735Z" style="fill:#f1f1f4;fill-rule:nonzero;"/><path d="M96.14,84.327c-0.165,-0.285 -0.577,-0.356 -0.931,-0.143c-0.353,0.202 -0.506,0.605 -0.341,0.89c0.165,0.285 0.577,0.356 0.93,0.154c0.353,-0.201 0.506,-0.605 0.342,-0.89" style="fill:#f1f1f4;fill-rule:nonzero;"/><path d="M93.481,85.904c-0.33,0 -0.59,0.332 -0.59,0.736c0,0.403 0.272,0.736 0.59,0.736c0.317,-0 0.588,-0.333 0.588,-0.736c0.001,-0.404 -0.271,-0.736 -0.588,-0.736Z" style="fill:#f1f1f4;fill-rule:nonzero;"/><path d="M92.303,85.987c-0.282,-0.095 -0.6,0.142 -0.706,0.522c-0.106,0.391 0.035,0.783 0.318,0.878c0.283,0.094 0.601,-0.143 0.706,-0.522c0.106,-0.392 -0.035,-0.783 -0.318,-0.878Z" style="fill:#8094bf;fill-rule:nonzero;"/><path d="M96.849,91.54c0.058,0.296 0.412,0.45 0.801,0.355c0.388,-0.094 0.659,-0.415 0.6,-0.712c-0.059,-0.296 -0.412,-0.45 -0.8,-0.355c-0.39,0.094 -0.66,0.415 -0.601,0.712Z" style="fill:#8094bf;fill-rule:nonzero;"/><path d="M91.937,88.906c-0.283,0.106 -0.377,0.486 -0.212,0.854c0.164,0.367 0.517,0.581 0.8,0.474c0.283,-0.107 0.378,-0.486 0.213,-0.854c-0.165,-0.368 -0.519,-0.582 -0.801,-0.474Z" style="fill:#8094bf;fill-rule:nonzero;"/><path d="M95.305,91.859c-0.047,0.297 0.235,0.57 0.636,0.617c0.4,0.048 0.766,-0.166 0.813,-0.462c0.046,-0.297 -0.236,-0.57 -0.636,-0.618c-0.401,-0.047 -0.766,0.167 -0.813,0.463Z" style="fill:#8094bf;fill-rule:nonzero;"/><path d="M99.546,90.401c0.235,0.19 0.612,0.083 0.847,-0.249c0.236,-0.332 0.236,-0.748 0.001,-0.937c-0.236,-0.19 -0.613,-0.084 -0.848,0.249c-0.236,0.332 -0.236,0.747 0,0.937Z" style="fill:#8094bf;fill-rule:nonzero;"/><path d="M100.403,85.976c0.283,-0.107 0.377,-0.487 0.212,-0.854c-0.165,-0.368 -0.518,-0.581 -0.8,-0.475c-0.283,0.107 -0.377,0.486 -0.213,0.854c0.165,0.368 0.518,0.582 0.801,0.475Z" style="fill:#8094bf;fill-rule:nonzero;"/><path d="M91.444,87.375c-0.224,-0 -0.413,0.332 -0.413,0.736c0,0.403 0.189,0.735 0.413,0.735c0.223,-0 0.412,-0.332 0.412,-0.735c-0.001,-0.404 -0.189,-0.736 -0.412,-0.736Z" style="fill:#8094bf;fill-rule:nonzero;"/><path d="M93.75,91.527c-0.118,0.202 0.07,0.522 0.424,0.735c0.353,0.202 0.73,0.202 0.848,-0c0.118,-0.201 -0.071,-0.522 -0.425,-0.735c-0.353,-0.202 -0.729,-0.202 -0.847,-0Z" style="fill:#8094bf;fill-rule:nonzero;"/><path d="M98.473,91.599c0.118,0.202 0.494,0.202 0.847,-0c0.353,-0.202 0.543,-0.534 0.425,-0.736c-0.119,-0.202 -0.495,-0.202 -0.848,0c-0.354,0.202 -0.542,0.534 -0.424,0.736Z" style="fill:#8094bf;fill-rule:nonzero;"/><path d="M100.898,87.505c0.223,0 0.412,-0.332 0.412,-0.735c0,-0.403 -0.189,-0.735 -0.412,-0.735c-0.224,-0 -0.413,0.332 -0.413,0.735c-0,0.403 0.189,0.735 0.413,0.735Z" style="fill:#8094bf;fill-rule:nonzero;"/><path d="M98.592,83.353c0.118,-0.201 -0.07,-0.522 -0.424,-0.735c-0.353,-0.202 -0.73,-0.202 -0.848,-0c-0.118,0.201 0.083,0.534 0.424,0.735c0.353,0.201 0.73,0.201 0.848,0Z" style="fill:#8094bf;fill-rule:nonzero;"/><path d="M91.349,86.035c-0.153,-0.047 -0.365,0.237 -0.471,0.629c-0.105,0.391 -0.07,0.748 0.083,0.795c0.153,0.047 0.365,-0.237 0.471,-0.629c0.105,-0.391 0.07,-0.747 -0.083,-0.795Z" style="fill:#8094bf;fill-rule:nonzero;"/><path d="M92.561,90.946c-0.118,0.119 0.023,0.439 0.306,0.736c0.283,0.285 0.613,0.427 0.719,0.32c0.118,-0.118 -0.023,-0.438 -0.306,-0.735c-0.283,-0.285 -0.613,-0.427 -0.719,-0.321Z" style="fill:#8094bf;fill-rule:nonzero;"/><path d="M97.377,92.346c0.035,0.154 0.389,0.201 0.777,0.094c0.388,-0.106 0.671,-0.32 0.636,-0.474c-0.035,-0.154 -0.388,-0.202 -0.777,-0.095c-0.388,0.107 -0.671,0.308 -0.636,0.475Z" style="fill:#8094bf;fill-rule:nonzero;"/><path d="M100.992,88.846c0.153,0.048 0.365,-0.237 0.471,-0.629c0.106,-0.391 0.07,-0.747 -0.082,-0.794c-0.154,-0.048 -0.366,0.237 -0.472,0.64c-0.105,0.392 -0.07,0.747 0.083,0.783Z" style="fill:#8094bf;fill-rule:nonzero;"/><path d="M99.779,83.935c0.118,-0.118 -0.024,-0.438 -0.306,-0.735c-0.283,-0.285 -0.612,-0.427 -0.718,-0.321c-0.118,0.12 0.023,0.44 0.306,0.736c0.283,0.285 0.612,0.427 0.718,0.32Z" style="fill:#8094bf;fill-rule:nonzero;"/><path d="M91.632,90.044c-0.106,0.059 -0.024,0.392 0.164,0.747c0.189,0.356 0.436,0.605 0.531,0.546c0.105,-0.059 0.023,-0.391 -0.166,-0.748c-0.188,-0.355 -0.435,-0.604 -0.529,-0.545Z" style="fill:#8094bf;fill-rule:nonzero;"/><path d="M96.141,92.702c-0,0.119 0.317,0.213 0.73,0.225c0.4,0 0.73,-0.071 0.742,-0.19c-0.001,-0.118 -0.319,-0.213 -0.73,-0.225c-0.401,0 -0.731,0.072 -0.742,0.19Z" style="fill:#8094bf;fill-rule:nonzero;"/><path d="M100.676,90.091c0.094,0.06 0.353,-0.177 0.565,-0.521c0.212,-0.344 0.306,-0.676 0.212,-0.736c-0.094,-0.059 -0.354,0.178 -0.565,0.522c-0.213,0.345 -0.307,0.676 -0.201,0.735" style="fill:#8094bf;fill-rule:nonzero;"/><path d="M100.712,84.836c0.093,-0.059 0.023,-0.391 -0.165,-0.748c-0.189,-0.355 -0.436,-0.604 -0.531,-0.545c-0.105,0.059 -0.023,0.392 0.165,0.747c0.201,0.356 0.436,0.605 0.531,0.546Z" style="fill:#8094bf;fill-rule:nonzero;"/><path d="M96.2,82.179c0,-0.119 -0.318,-0.214 -0.73,-0.225c-0.4,-0 -0.73,0.07 -0.741,0.19c-0,0.118 0.318,0.213 0.73,0.225c0.4,-0 0.73,-0.072 0.741,-0.19Z" style="fill:#8094bf;fill-rule:nonzero;"/><path d="M90.878,88.621c-0.105,0.036 -0.082,0.38 0.047,0.771c0.13,0.381 0.33,0.665 0.436,0.63c0.106,-0.036 0.094,-0.38 -0.047,-0.771c-0.13,-0.381 -0.33,-0.665 -0.436,-0.63Z" style="fill:#8094bf;fill-rule:nonzero;"/><path d="M94.539,92.655c-0.023,0.118 0.283,0.273 0.683,0.344c0.401,0.071 0.742,0.047 0.754,-0.071c0.023,-0.119 -0.283,-0.273 -0.683,-0.344c-0.4,-0.084 -0.742,-0.048 -0.754,0.071Z" style="fill:#8094bf;fill-rule:nonzero;"/><path d="M99.838,91.468c0.082,0.072 0.376,-0.118 0.636,-0.426c0.258,-0.309 0.412,-0.618 0.318,-0.7c-0.083,-0.071 -0.377,0.118 -0.636,0.415c-0.271,0.308 -0.413,0.617 -0.318,0.699" style="fill:#8094bf;fill-rule:nonzero;"/><path d="M101.464,86.26c0.105,-0.036 0.094,-0.38 -0.047,-0.771c-0.13,-0.392 -0.331,-0.665 -0.436,-0.629c-0.106,0.035 -0.095,0.38 0.047,0.771c0.129,0.38 0.329,0.665 0.436,0.629Z" style="fill:#8094bf;fill-rule:nonzero;"/><path d="M97.801,82.226c0.024,-0.118 -0.282,-0.273 -0.683,-0.343c-0.4,-0.072 -0.741,-0.048 -0.766,0.07c-0.023,0.119 0.283,0.273 0.684,0.344c0.4,0.084 0.742,0.048 0.754,-0.071" style="fill:#8094bf;fill-rule:nonzero;"/><path d="M92.504,83.401c-0.083,-0.071 -0.377,0.119 -0.637,0.427c-0.27,0.308 -0.411,0.617 -0.318,0.7c0.083,0.071 0.378,-0.119 0.636,-0.415c0.26,-0.309 0.413,-0.617 0.319,-0.7" style="fill:#8094bf;fill-rule:nonzero;"/><path d="M101.781,86.865c0,-0 0.023,-0.225 -0.036,-0.486c-0.059,-0.261 -0.141,-0.463 -0.176,-0.463c-0.036,0 -0.023,0.225 0.035,0.486c0.059,0.261 0.141,0.463 0.177,0.463Z" style="fill:#8094bf;fill-rule:nonzero;"/><path d="M97.73,81.978c0,-0 -0.2,-0.119 -0.459,-0.179c-0.259,-0.059 -0.483,-0.07 -0.483,-0.035c0,0.035 0.201,0.119 0.459,0.178c0.26,0.059 0.483,0.071 0.483,0.036Z" style="fill:#8094bf;fill-rule:nonzero;"/><path d="M100.853,90.602c0,0 0.13,-0.07 0.236,-0.19c0.093,-0.13 0.141,-0.249 0.117,-0.272c-0.035,-0.024 -0.129,0.071 -0.235,0.19c-0.095,0.13 -0.153,0.249 -0.118,0.272Z" style="fill:#8094bf;fill-rule:nonzero;"/><path d="M100.876,84.457c0.117,0.237 0.27,0.403 0.318,0.368c0.024,-0.012 0.024,-0.059 -0,-0.131c-0.141,-0.249 -0.294,-0.498 -0.459,-0.723c-0.047,0.047 -0,0.249 0.129,0.486l0.012,0Z" style="fill:#8094bf;fill-rule:nonzero;"/><path d="M101.807,88.408c-0.059,-0.024 -0.224,0.308 -0.377,0.723c-0.142,0.428 -0.212,0.783 -0.153,0.807c0.035,0.012 0.106,-0.083 0.176,-0.249c0.165,-0.391 0.283,-0.819 0.365,-1.257c0.001,-0.012 0.001,-0.024 -0.023,-0.036l0.011,0.012Z" style="fill:#8094bf;fill-rule:nonzero;"/><path d="M99.72,91.694c-0.341,0.285 -0.601,0.546 -0.553,0.605c0.023,0.036 0.141,-0.024 0.294,-0.118c0.341,-0.25 0.659,-0.534 0.954,-0.843c0,-0.023 0.011,-0.047 0,-0.047c-0.035,-0.048 -0.353,0.13 -0.706,0.415l0.011,-0.012Z" style="fill:#8094bf;fill-rule:nonzero;"/><path d="M98.863,92.488c-0,-0 -0.248,-0.036 -0.495,0.059c-0.247,0.095 -0.435,0.214 -0.412,0.273c0.024,0.048 0.188,0.036 0.389,-0.023c0.153,-0.06 0.294,-0.131 0.435,-0.202c0.06,-0.048 0.083,-0.083 0.071,-0.107l0.012,-0Z" style="fill:#8094bf;fill-rule:nonzero;"/><path d="M97.742,92.975c0,-0.059 -0.377,-0.071 -0.812,-0.023c-0.448,0.047 -0.789,0.142 -0.789,0.213c-0,0.036 0.141,0.059 0.341,0.059c0.424,-0.023 0.825,-0.094 1.213,-0.201c0.024,-0.012 0.035,-0.036 0.035,-0.048l0.012,0Z" style="fill:#8094bf;fill-rule:nonzero;"/><path d="M95.14,93.046c-0.153,-0.036 -0.282,-0.036 -0.294,-0l-0,0.012c0.176,0.047 0.365,0.083 0.553,0.106c0,-0.035 -0.118,-0.094 -0.27,-0.118l0.011,-0Z" style="fill:#8094bf;fill-rule:nonzero;"/><path d="M94.576,92.963c0.023,-0.059 -0.271,-0.261 -0.672,-0.463c-0.4,-0.189 -0.753,-0.296 -0.777,-0.237c-0.012,0.036 0.071,0.119 0.224,0.214c0.365,0.213 0.765,0.38 1.177,0.51c0.024,0 0.048,0 0.059,-0.012l-0.011,-0.012Z" style="fill:#8094bf;fill-rule:nonzero;"/><path d="M92.714,91.99c-0.001,0 -0.071,-0.237 -0.259,-0.426c-0.189,-0.19 -0.377,-0.309 -0.413,-0.261c-0.035,0.035 0.035,0.165 0.153,0.308c0.13,0.13 0.271,0.249 0.413,0.367c0.047,0.024 0.094,0.036 0.105,0.012Z" style="fill:#8094bf;fill-rule:nonzero;"/><path d="M91.903,91.255c-0,-0 -0.094,-0.369 -0.33,-0.748c-0.236,-0.38 -0.471,-0.653 -0.53,-0.629c-0.023,0.012 0,0.107 0.059,0.249c0.212,0.404 0.471,0.783 0.765,1.116c0.013,-0 0.036,0.012 0.036,-0l-0,0.012Z" style="fill:#8094bf;fill-rule:nonzero;"/><path d="M90.713,89.154c-0.001,-0 0.035,-0.119 -0.001,-0.249c-0.023,-0.131 -0.07,-0.237 -0.105,-0.225c-0.024,-0 -0.024,0.047 -0.024,0.118c0.024,0.119 0.059,0.225 0.094,0.333c0,0.011 0.024,0.023 0.036,0.023Z" style="fill:#8094bf;fill-rule:nonzero;"/><path d="M90.513,88.36c0,-0 0.012,0.024 0.023,0.024c0.072,-0 0.118,-0.369 0.118,-0.807c0,-0.439 -0.046,-0.807 -0.118,-0.807c-0.023,-0 -0.058,0.071 -0.07,0.178c-0.012,0.166 -0.024,0.344 -0.024,0.522c0,0.308 0.024,0.617 0.071,0.914l0,-0.024Z" style="fill:#8094bf;fill-rule:nonzero;"/><path d="M90.63,86.154c0.059,0.023 0.188,-0.167 0.283,-0.416c0.094,-0.249 0.13,-0.462 0.058,-0.486c-0.046,-0.012 -0.118,0.083 -0.2,0.225c-0.07,0.19 -0.129,0.392 -0.176,0.606c-0,0.047 -0,0.071 0.035,0.071Z" style="fill:#8094bf;fill-rule:nonzero;"/><path d="M92.209,83.329c-0,0 0.247,-0.035 0.46,-0.201c0.211,-0.154 0.353,-0.321 0.318,-0.38c-0.024,-0.035 -0.13,0 -0.26,0.071c-0.176,0.131 -0.353,0.285 -0.518,0.439c-0.011,0.024 -0.011,0.048 -0,0.059l-0,0.012Z" style="fill:#8094bf;fill-rule:nonzero;"/><path d="M93.387,82.417c0.023,0.059 0.376,-0 0.8,-0.167c0.425,-0.154 0.743,-0.32 0.719,-0.391c-0,-0.024 -0.059,-0.024 -0.153,-0.012c-0.483,0.119 -0.942,0.309 -1.366,0.546l0,0.024Z" style="fill:#8094bf;fill-rule:nonzero;"/><path d="M95.057,81.823c-0.001,0.06 0.224,0.107 0.495,0.084c0.27,-0.012 0.471,-0.084 0.471,-0.143c-0.001,-0.035 -0.095,-0.071 -0.236,-0.083c-0.236,0.012 -0.46,0.048 -0.683,0.083c-0.023,0.012 -0.035,0.035 -0.035,0.047l-0.013,0.012Z" style="fill:#8094bf;fill-rule:nonzero;"/><path d="M98.25,82.108c0,-0 0.141,0.213 0.365,0.344c0.236,0.13 0.447,0.19 0.471,0.13c0.023,-0.036 -0.059,-0.13 -0.177,-0.213c-0.188,-0.107 -0.388,-0.202 -0.588,-0.285c-0.036,-0 -0.059,-0 -0.071,0.024Z" style="fill:#8094bf;fill-rule:nonzero;"/><path d="M99.958,83.39c0.318,0.32 0.612,0.533 0.659,0.486c0.024,-0.023 0,-0.083 -0.058,-0.166c-0.306,-0.368 -0.672,-0.7 -1.06,-0.984l-0.024,-0c-0.047,0.047 0.177,0.344 0.495,0.652l-0.012,0.012Z" style="fill:#8094bf;fill-rule:nonzero;"/><path d="M73.047,96.925c1.684,-2.04 3.38,-2.515 3.38,-2.515c-1.319,-0.332 -3.521,0.985 -3.521,0.985c-0.659,-0.463 -0.907,-1.887 -1.025,-2.848c-0.388,-3.369 0.507,-7.213 0.507,-7.213c-2.249,5.671 -2.626,16.431 -2.626,16.431c7.313,-5.576 13.401,-5.291 13.401,-5.291c-3.144,-1.934 -9.315,0.154 -10.127,0.439l0.011,0.012Z" style="fill:#365888;fill-rule:nonzero;"/><path d="M123.663,91.955c-0.059,-1.447 -0.354,-2.883 -0.589,-4.33c-0.342,-1.424 -0.695,-2.847 -1.213,-4.235c-1.037,-2.752 -2.532,-5.398 -4.617,-7.522c-2.084,-2.123 -4.721,-3.629 -7.489,-4.329c2.438,1.518 4.581,3.298 6.265,5.433c1.66,2.159 2.932,4.579 3.862,7.165c0.672,1.78 1.19,3.63 1.614,5.504c0.153,1.317 0.294,2.682 0.4,3.821c0.082,0.925 0.118,1.625 -0.541,2.088c-0.001,-0 -3.169,-2.195 -4.476,-1.863c0,-0 1.696,0.463 3.38,2.515c-0.813,-0.285 -6.971,-2.373 -10.127,-0.439c-0,-0 6.088,-0.284 13.401,5.291c0,0 0,-0.581 -0.024,-1.507c0.295,-2.514 0.39,-5.065 0.154,-7.604l-0,0.012Z" style="fill:#365888;fill-rule:nonzero;"/><path d="M23.801,137.107l0,3.404c-0.965,-0.474 -1.766,-0.712 -2.414,-0.712c-0.895,0 -1.66,0.226 -2.296,0.665c-0.636,0.438 -1.166,1.127 -1.578,2.052c-0.412,0.925 -0.719,2.088 -0.919,3.5c-0.2,1.411 -0.294,3.084 -0.294,5.018c-0,6.94 1.766,10.404 5.287,10.404c0.613,0 1.355,-0.19 2.226,-0.582l0,3.476c-0.907,0.51 -1.92,0.759 -3.038,0.759c-5.653,0 -8.467,-4.65 -8.467,-13.938c-0,-5.019 0.683,-8.756 2.072,-11.211c1.39,-2.456 3.486,-3.678 6.336,-3.678c1.048,0 2.084,0.285 3.109,0.843l-0.024,-0Z" style="fill:#fff;fill-rule:nonzero;"/><path d="M40.712,151.39c-0,4.958 -0.554,8.481 -1.649,10.569c-1.095,2.088 -2.932,3.132 -5.511,3.132c-2.709,0 -4.617,-1.127 -5.724,-3.369c-1.095,-2.194 -1.648,-6.097 -1.648,-11.697c-0,-4.995 0.541,-8.529 1.625,-10.605c1.095,-2.088 2.944,-3.132 5.558,-3.132c2.332,-0 4.075,0.806 5.205,2.42c0.742,1.079 1.284,2.61 1.625,4.603c0.342,1.839 0.507,4.531 0.507,8.079l0.012,-0Zm-3.934,0.402c0,-4.863 -0.212,-8.09 -0.647,-9.68c-0.436,-1.601 -1.319,-2.396 -2.65,-2.396c-1.331,-0 -2.226,0.736 -2.673,2.206c-0.436,1.483 -0.648,4.449 -0.648,8.922c0,4.116 0.224,6.963 0.683,8.553c0.471,1.506 1.343,2.254 2.638,2.254c1.295,0 2.131,-0.7 2.603,-2.112c0.471,-1.399 0.706,-3.974 0.706,-7.735l-0.012,-0.012Z" style="fill:#fff;fill-rule:nonzero;"/><path d="M44.432,136.655l4.946,0c2.049,0 3.568,0.487 4.569,1.472c1.26,1.269 1.896,3.214 1.896,5.836c-0,2.017 -0.33,3.63 -1.001,4.852c-0.671,1.222 -1.625,1.969 -2.862,2.266l5.135,13.666l-3.816,0l-5.111,-13.761l0,13.761l-3.756,0l-0,-28.092Zm3.756,12.445c1.46,-0 2.485,-0.344 3.086,-1.021c0.6,-0.676 0.906,-1.826 0.906,-3.44c0,-0.878 -0.058,-1.625 -0.188,-2.242c-0.13,-0.617 -0.33,-1.127 -0.601,-1.507c-0.27,-0.391 -0.624,-0.676 -1.048,-0.854c-0.424,-0.178 -0.93,-0.273 -1.531,-0.273l-0.636,0l0,9.337l0.012,-0Z" style="fill:#fff;fill-rule:nonzero;"/><path d="M60.023,136.655l4.946,0c2.379,0 4.122,0.605 5.206,1.815c1.083,1.222 1.625,3.168 1.625,5.825c-0,3.737 -1.095,6.145 -3.274,7.236c-1.095,0.499 -2.685,0.748 -4.746,0.748l0,12.468l-3.757,0l0,-28.092Zm3.745,12.386c1.555,-0 2.626,-0.321 3.215,-0.95c0.601,-0.64 0.907,-1.779 0.907,-3.416c0,-1.637 -0.294,-2.895 -0.871,-3.678c-0.577,-0.771 -1.484,-1.163 -2.733,-1.163l-0.529,0l-0,9.207l0.011,-0Z" style="fill:#fff;fill-rule:nonzero;"/><path d="M88.641,151.39c0,4.958 -0.553,8.481 -1.649,10.569c-1.094,2.088 -2.932,3.132 -5.511,3.132c-2.709,0 -4.616,-1.127 -5.723,-3.369c-1.095,-2.194 -1.649,-6.097 -1.649,-11.697c0,-4.995 0.542,-8.529 1.625,-10.605c1.096,-2.088 2.945,-3.132 5.559,-3.132c2.331,-0 4.074,0.806 5.205,2.42c0.742,1.079 1.283,2.61 1.625,4.603c0.342,1.839 0.507,4.531 0.507,8.079l0.011,-0Zm-3.933,0.402c0,-4.863 -0.212,-8.09 -0.648,-9.68c-0.436,-1.601 -1.319,-2.396 -2.649,-2.396c-1.331,-0 -2.226,0.736 -2.674,2.206c-0.435,1.483 -0.647,4.449 -0.647,8.922c0,4.116 0.224,6.963 0.683,8.553c0.471,1.506 1.354,2.254 2.638,2.254c1.283,0 2.132,-0.7 2.602,-2.112c0.471,-1.399 0.707,-3.974 0.707,-7.735l-0.012,-0.012Z" style="fill:#fff;fill-rule:nonzero;"/><path d="M92.361,136.655l4.946,0c2.049,0 3.569,0.487 4.569,1.472c1.26,1.269 1.896,3.214 1.896,5.836c0,2.017 -0.329,3.63 -1,4.852c-0.672,1.222 -1.626,1.969 -2.862,2.266l5.134,13.666l-3.815,0l-5.111,-13.761l-0,13.761l-3.757,0l-0,-28.092Zm3.757,12.445c1.46,-0 2.484,-0.344 3.085,-1.021c0.601,-0.676 0.907,-1.826 0.907,-3.44c-0,-0.878 -0.059,-1.625 -0.188,-2.242c-0.13,-0.617 -0.33,-1.127 -0.601,-1.507c-0.271,-0.391 -0.624,-0.676 -1.048,-0.854c-0.424,-0.178 -0.93,-0.273 -1.531,-0.273l-0.635,0l-0,9.337l0.011,-0Z" style="fill:#fff;fill-rule:nonzero;"/><path d="M111.908,136.655l2.933,0l5.983,28.092l-3.722,0l-1.049,-5.481l-5.523,0l-1.071,5.481l-3.615,0l6.064,-28.092Zm3.616,19.681l-0.836,-4.472c-0.554,-3.049 -1.002,-6.3 -1.355,-9.752c-0.165,1.685 -0.388,3.393 -0.647,5.125c-0.271,1.732 -0.578,3.559 -0.942,5.505l-0.683,3.606l4.463,-0l0,-0.012Z" style="fill:#fff;fill-rule:nonzero;"/><path d="M120.211,136.655l12.224,0l0,3.31l-4.204,-0l-0,24.782l-3.687,0l0,-24.782l-4.333,-0l-0,-3.31Z" style="fill:#fff;fill-rule:nonzero;"/><path d="M134.519,136.655l9.987,0l-0,3.203l-6.23,0l0,8.898l5.523,-0l0,3.203l-5.523,-0l0,9.585l6.23,-0l-0,3.203l-9.987,0l0,-28.092Z" style="fill:#fff;fill-rule:nonzero;"/></g></g></svg>