<?xml version="1.0" encoding="utf-8"?>
<!-- Generator: Adobe Illustrator 19.0.0, SVG Export Plug-In . SVG Version: 6.00 Build 0)  -->
<svg version="1.1" id="Layer_1" xmlns="http://www.w3.org/2000/svg" xmlns:xlink="http://www.w3.org/1999/xlink" x="0px" y="0px"
	 viewBox="0 0 186 15.4" style="enable-background:new 0 0 186 15.4;" xml:space="preserve">
<style type="text/css">
	.st0{fill:#14284B;}
	.st1{fill:#FF0014;}
</style>
<g>
	<g>
		<path class="st0" d="M128.4,4.5l2.7,4.8h-6.1l2.6-4.8H128.4z M116.3,15.2h5.4l1.4-2.6h9.7l1.5,2.6h5.3l-8.6-14.9h-6.3L116.3,15.2z
			"/>
		<g>
			<path class="st0" d="M48.1,11.2c0,3.2,1.8,4,6.1,4H60c6.4,0,7.8-0.7,7.8-4.7c0-4.3-1.7-4.8-9.2-4.7c-5.1,0-5.7,0-5.7-1.3
				c0-0.8,0.7-1.1,1.8-1.1h5.3c2.2,0,2.3,0.4,2.3,1.5h4.8V4.4c0-2.6-0.5-4.4-6.1-4.4h-6.7c-6.1,0-6.3,2.1-6.3,4.8
				c0,3.7,0.8,4.5,8.1,4.5c6.2,0,6.8,0.1,6.8,1.4c0,1.2-1,1.3-2.1,1.3H55c-1.4,0-2.1-0.1-2.1-1.7h-4.8V11.2z"/>
		</g>
		<polygon class="st0" points="71.8,15.2 76.6,15.2 76.6,9.6 86.7,9.6 86.7,15.2 91.5,15.2 91.5,0.3 86.7,0.3 86.7,5.6 76.6,5.6 
			76.6,0.3 71.8,0.3 		"/>
		<g>
			<path class="st0" d="M95.9,9.9c0,3.7,2,5.5,6.4,5.5h6.9c4.4,0,6.4-1.8,6.4-5.5V0.3h-4.8v8.6c0,1.9-0.7,2.6-2.7,2.6h-4.8
				c-2,0-2.7-0.7-2.7-2.6V0.3h-4.8V9.9z"/>
		</g>
		<path class="st0" d="M35.4,4.5l2.7,4.8h-6.1l2.6-4.8H35.4z M23.4,15.2h5.4l1.4-2.6h9.7l1.5,2.6h5.3L38.1,0.3h-6.3L23.4,15.2z"/>
		<polygon class="st0" points="16,10.5 7.4,0.3 0,0.3 0,15.2 4.8,15.2 4.8,5 5.3,5 13.9,15.2 21.3,15.2 21.3,0.3 16.5,0.3 
			16.5,10.5 		"/>
	</g>
	<polygon class="st1" points="176.3,15.2 167.6,0.3 177.4,0.3 186,15.2 	"/>
	<polygon class="st1" points="145,15.2 136.4,0.3 140,0.3 148.6,15.2 	"/>
	<polygon class="st1" points="151.1,15.2 142.5,0.3 146.7,0.3 155.3,15.2 	"/>
	<polygon class="st1" points="157.9,15.2 149.2,0.3 154.9,0.3 163.5,15.2 	"/>
	<polygon class="st1" points="166.1,15.2 157.5,0.3 165.1,0.3 173.7,15.2 	"/>
</g>
</svg>
