<?xml version="1.0" encoding="UTF-8"?>
<svg width="221px" height="49px" viewBox="0 0 221 49" version="1.1" xmlns="http://www.w3.org/2000/svg" xmlns:xlink="http://www.w3.org/1999/xlink">
    <!-- Generator: Sketch 41.2 (35397) - http://www.bohemiancoding.com/sketch -->
    <title>logo_md_new</title>
    <desc>Created with Sketch.</desc>
    <defs></defs>
    <g id="Page-1" stroke="none" stroke-width="1" fill="none" fill-rule="evenodd">
        <g id="logo_md_new">
            <g id="Home-Page">
                <g id="Desktop---colour---images-Copy">
                    <g id="logo">
                        <g id="fm-_-text" transform="translate(68.000000, 11.000000)" fill="#FFFFFF">
                            <path d="M132.7299,7.79850212 L129.522097,7.79850212 L129.522097,18.9165887 L127.613511,18.9165887 L127.613511,7.79850212 L125.36,7.79850212 L125.36,6.93618932 L127.613511,6.24633905 L127.613511,5.5449913 C127.613511,2.4483147 128.96637,0.899999619 131.67213,0.899999619 C132.338988,0.899999619 133.120811,1.03413583 134.017621,1.30241226 L133.523228,2.83158032 C132.787384,2.59396405 132.15886,2.47515769 131.637637,2.47515769 C130.917123,2.47515769 130.384411,2.71468663 130.039484,3.19375169 C129.694557,3.67281677 129.522097,4.44122561 129.522097,5.49900129 L129.522097,6.31532409 L132.7299,6.31532409 L132.7299,7.79850212 Z M151.091414,18.9165887 L151.091414,10.7188682 C151.091414,9.7147478 150.876796,8.96166881 150.447554,8.45960862 C150.018312,7.95754842 149.351463,7.70652209 148.446988,7.70652209 C147.258907,7.70652209 146.381273,8.04761131 145.81406,8.72979996 C145.246847,9.41198862 144.963245,10.4620835 144.963245,11.8801161 L144.963245,18.9165887 L143.054659,18.9165887 L143.054659,10.7188682 C143.054659,9.7147478 142.840041,8.96166881 142.410799,8.45960862 C141.981556,7.95754842 141.310875,7.70652209 140.398735,7.70652209 C139.202989,7.70652209 138.327271,8.06485739 137.771556,8.78153873 C137.21584,9.49822007 136.937987,10.67287 136.937987,12.3055238 L136.937987,18.9165887 L135.029401,18.9165887 L135.029401,6.31532409 L136.581564,6.31532409 L136.891997,8.03994972 L136.983977,8.03994972 C137.344234,7.42674643 137.852035,6.94768854 138.507396,6.60276169 C139.162757,6.25783484 139.896674,6.085374 140.709168,6.085374 C142.679084,6.085374 143.966791,6.79821213 144.572329,8.22390978 L144.664309,8.22390978 C145.039896,7.56471624 145.584106,7.04350126 146.296955,6.66024921 C147.009804,6.27699715 147.822286,6.085374 148.734426,6.085374 C150.160124,6.085374 151.227465,6.45137422 151.936481,7.18338566 C152.645497,7.91539707 153,9.08621454 153,10.6958732 L153,18.9165887 L151.091414,18.9165887 Z" id="Shape"></path>
                            <g id="text">
                                <path d="M14.75,15.27 C15.581303,15.2388687 16.3657506,14.8770426 16.9290656,14.264907 C17.4923805,13.6527714 17.7879109,12.8410214 17.75,12.01 C17.7962739,11.1399267 17.4868696,10.2884219 16.8928342,9.6510125 C16.2987988,9.01360308 15.4711728,8.64505639 14.6,8.63 C13.7264726,8.64831219 12.8963523,9.01438592 12.2937403,9.64703457 C11.6911284,10.2796832 11.3658341,11.1266149 11.39,12 C11.3702288,12.8907853 11.7181692,13.7503992 12.3519772,14.3766393 C12.9857853,15.0028795 13.8495164,15.3404695 14.74,15.31 L14.74,15.31 L14.75,15.27 Z M17.75,17.27 C16.7697361,18.33704 15.3674803,18.9155162 13.92,18.85 C12.4116189,18.8773372 10.953114,18.3097417 9.86,17.27 C8.45352247,15.9447552 7.63972247,14.1091303 7.60209624,12.1770234 C7.56447001,10.2449165 8.30618545,8.37899926 9.66,7 C10.7794404,5.7918333 12.3529414,5.10659899 14,5.11 C15.4250153,5.03915019 16.7923768,5.6797497 17.65,6.82 L17.65,5.32 L21.46,5.32 L21.46,18.78 L17.76,18.78 L17.76,17.28 L17.76,17.28 L17.75,17.27 Z" id="Shape"></path>
                                <path d="M37,14.21 C36.2365681,17.2818657 33.4651802,19.4286572 30.3,19.4 C28.4097086,19.4472012 26.5961453,18.6521644 25.35,17.23 C24.1011294,15.8651294 23.412068,14.0799963 23.42,12.23 C23.4020518,10.3649584 24.1207674,8.56816931 25.42,7.23 C26.6527156,5.8650909 28.4109001,5.09338262 30.25,5.11 C33.54,5.11 35.95,6.97 37,10.4 L32.93,10.4 C32.3698505,9.46258936 31.3291554,8.92096362 30.24,9 C29.4028491,8.99753579 28.6027468,9.34497894 28.0330313,9.95837269 C27.4633157,10.5717664 27.1758145,11.3953097 27.24,12.23 C27.1361517,13.1056534 27.4228043,13.982651 28.023779,14.6279283 C28.6247536,15.2732055 29.479183,15.621408 30.36,15.58 C31.3793479,15.5939102 32.3360032,15.089218 32.9,14.24 L37,14.24 L37,14.21 Z" id="Shape-2"></path>
                                <path d="M45.42,15.27 C46.2503767,15.2362289 47.0332338,14.8736087 47.5959918,14.2620784 C48.1587498,13.650548 48.4552034,12.8403172 48.42,12.01 C48.4634674,11.1389572 48.1517527,10.2875367 47.5561477,9.65046549 C46.9605427,9.01339431 46.1319948,8.64516691 45.26,8.63 C44.3890924,8.65089759 43.5625248,9.01844519 42.9636507,9.65111152 C42.3647767,10.2837778 42.0431084,11.1292568 42.07,12 C42.0502288,12.8907853 42.3981692,13.7503992 43.0319772,14.3766393 C43.6657853,15.0028795 44.5295164,15.3404695 45.42,15.31 L45.42,15.31 L45.42,15.27 Z M48.42,17.27 C47.4358363,18.3374697 46.0304305,18.9157356 44.58,18.85 C43.0746728,18.8768598 41.6194538,18.3091447 40.53,17.27 C39.1142134,15.9437891 38.2944042,14.1017529 38.256743,12.1621992 C38.2190817,10.2226454 38.9667645,8.35017246 40.33,6.97 C41.4492339,5.77700555 43.0141901,5.10320499 44.65,5.11 C46.0750153,5.03915019 47.4423768,5.6797497 48.3,6.82 L48.3,5.32 L52.11,5.32 L52.11,18.78 L48.42,18.78 L48.42,17.28 L48.42,17.28 L48.42,17.27 Z" id="Shape-3"></path>
                                <path d="M58.35,5.32 L58.35,7.16 C58.9372965,5.85725818 60.2745778,5.05888125 61.7,5.16 L61.7,8.8 L61.6,8.8 C59.12,8.8 58.6,9.65 58.6,12.15 L58.6,18.86 L54.6,18.86 L54.6,5.32 L58.31,5.32 L58.35,5.32 Z" id="Shape-4"></path>
                                <path d="M69.73,15.27 C70.5621876,15.2362723 71.3466163,14.872264 71.9096625,14.2585436 C72.4727087,13.6448232 72.7679362,12.8320064 72.73,12 C72.7734674,11.1289572 72.4617527,10.2775367 71.8661477,9.64046549 C71.2705427,9.00339431 70.4419948,8.63516691 69.57,8.62 C68.6973017,8.64085404 67.86917,9.00978181 67.2700044,9.64463436 C66.6708389,10.2794869 66.3503857,11.1275551 66.38,12 C66.3602288,12.8907853 66.7081692,13.7503992 67.3419772,14.3766393 C67.9757853,15.0028795 68.8395164,15.3404695 69.73,15.31 L69.73,15.31 L69.73,15.27 Z M72.73,17.27 C71.7458363,18.3374697 70.3404305,18.9157356 68.89,18.85 C67.3852535,18.8736246 65.9312174,18.306371 64.84,17.27 C63.4261434,15.9406201 62.6078964,14.0974057 62.5702569,12.1570901 C62.5326174,10.2167745 63.278764,8.34321292 64.64,6.96 C65.7718815,5.76248579 67.3523144,5.09188928 69,5.11 C70.4211308,5.03305039 71.7868179,5.67087125 72.64,6.81 L72.64,5.31 L76.46,5.31 L76.46,18.78 L72.76,18.78 L72.76,17.28 L72.76,17.28 L72.73,17.27 Z" id="Shape-5"></path>
                                <path d="M79,18.86 L79,5.37 L82.61,5.37 L82.56,7.18 C83.3004904,5.83988042 84.7409966,5.0400306 86.27,5.12 C88.94,5.12 90.68,6.88 90.68,9.97 L90.68,18.86 L86.88,18.86 L86.88,11.55 C86.88,9.66 86.49,8.81 85.02,8.81 C83.55,8.81 82.73,9.74 82.73,11.55 L82.73,18.86 L79,18.86 L79,18.86 Z" id="Shape-6"></path>
                                <path d="M99.34,15.13 C100.171303,15.0988687 100.955751,14.7370426 101.519066,14.124907 C102.082381,13.5127714 102.377911,12.7010214 102.34,11.87 C102.386322,10.9982195 102.075571,10.1451762 101.479363,9.50745961 C100.883154,8.86974302 100.052923,8.50236851 99.18,8.49 C97.377832,8.52827625 95.9465188,10.0177366 95.98,11.82 C95.9630146,12.7090675 96.3121828,13.5660394 96.9456729,14.1900744 C97.5791631,14.8141095 98.4412884,15.1503521 99.33,15.12 L99.33,15.12 L99.34,15.13 Z M102.34,17.13 C101.355836,18.1974697 99.9504305,18.7757356 98.5,18.71 C97.0120953,18.7226676 95.5776125,18.1560469 94.5,17.13 C93.0853832,15.8072832 92.266012,13.9685615 92.2283405,12.0322502 C92.1906691,10.0959389 92.9379018,8.22673854 94.3,6.85 C95.4090633,5.67336993 96.9530707,5.0044206 98.57,5 C99.9911308,4.92305039 101.356818,5.56087125 102.21,6.7 L102.21,0.85 L106,0.85 L106,18.64 L102.31,18.64 L102.31,17.14 L102.31,17.14 L102.34,17.13 Z" id="Shape-7"></path>
                                <path d="M115.74,15.27 C116.572188,15.2362723 117.356616,14.872264 117.919662,14.2585436 C118.482709,13.6448232 118.777936,12.8320064 118.74,12 C118.786378,11.1265069 118.474282,10.2719176 117.875897,9.63389203 C117.277513,8.99586645 116.44467,8.62966961 115.57,8.62 C114.698196,8.643515 113.871651,9.01325983 113.273053,9.64751137 C112.674454,10.2817629 112.353094,11.1282942 112.38,12 C112.36009,12.8925851 112.709382,13.7538283 113.345406,14.3803882 C113.981431,15.0069481 114.847814,15.343289 115.74,15.31 L115.74,15.31 L115.74,15.27 Z M118.74,17.27 C117.755035,18.3363177 116.350189,18.9143531 114.9,18.85 C113.391426,18.8784212 111.932524,18.3106711 110.84,17.27 C109.426143,15.9406201 108.607896,14.0974057 108.570257,12.1570901 C108.532617,10.2167745 109.278764,8.34321292 110.64,6.96 C111.771169,5.761461 113.352073,5.09066472 115,5.11 C116.422186,5.02757757 117.790337,5.66654926 118.64,6.81 L118.64,5.31 L122.46,5.31 L122.46,18.78 L118.77,18.78 L118.77,17.28 L118.77,17.28 L118.74,17.27 Z" id="Shape-8"></path>
                                <path d="M0.18,23.47 L0.18,20.3 C1.66,20.3 1.78,19.67 1.78,17.93 L1.78,5.11 L5.61,5.11 L5.61,18 C5.61,21.94 4.83,23.5 1.14,23.5 C0.93,23.53 0.58,23.51 0.18,23.47 Z" id="Shape-9"></path>
                                <rect id="Rectangle-322" x="1.76" y="0.31" width="3.8" height="3.3"></rect>
                            </g>
                        </g>
                        <g id="jac-logo">
                            <path d="M36.52,8 L36.52,10 L24.7,10 L24.7,2.42 C21.5581152,1.20011812 18.2373073,0.504201105 14.87,0.36 C2.1,0.36 0.35,14.83 0.35,24.65 C0.35,34.47 2.1,48.93 14.87,48.93 C15.5821143,48.9246813 16.2933159,48.8779356 17,48.79 L17,36.94 C19.0923231,36.9889349 21.1002078,36.1148284 22.49,34.55 C23.9268569,32.9563773 24.702787,30.8753112 24.66,28.73 L24.66,14.73 L36.52,14.73 L36.52,28.73 C36.6111242,34.1339925 34.5789179,39.358127 30.86,43.28 C30.1815178,43.9937451 29.4566047,44.6618678 28.69,45.28 C40.63,40.05 53.26,30.43 53.26,24.66 L53.26,24.66 C53.26,20.16 45.57,13.31 36.52,8.04" id="Shape-10" fill="#FFFFFF"></path>
                            <path d="M16.83,47.1 C16.1034714,47.1905776 15.3721482,47.2373289 14.64,47.24 C5.99,47.24 1.64,39.58 1.64,24.46 C1.64,9.34 6,1.69 14.64,1.69 C18.0406449,1.83730078 21.3915966,2.560917 24.55,3.83 L24.55,2.07 C21.3816949,0.844053403 18.0341318,0.144814686 14.64,3.4572345e-15 C1.76,0 0,14.57 0,24.47 C0,34.37 1.76,48.93 14.64,48.93 C15.3720993,48.9259014 16.1033381,48.8791555 16.83,48.79 L16.83,47.1 L16.83,47.1 L16.83,47.1 Z" id="Shape-11" fill="#00AEEF"></path>
                            <path d="M36.52,8 L36.52,10 C44.92,15 51.83,21.27 51.83,24.81 C51.83,28.95 42.3,36.81 32.04,42.12 C30.74,42.84 29.17,43.58 27.62,44.24 L28,45 L28,45 L28.33,45.59 L28.33,45.68 L28.33,45.68 L28.33,45.68 L28.48,45.61 L28.48,45.61 C40.55,40.34 53.31,30.61 53.31,24.82 L53.31,24.82 C53.31,20.28 45.53,13.37 36.38,8.05" id="Shape-12" fill="#EC008C"></path>
                            <path d="M24.37,28.64 C24.4167814,30.8027866 23.6371629,32.9020343 22.19,34.51 C20.7876189,36.0889725 18.7612266,36.9704898 16.65,36.92 L16.65,48.86 C17.17,48.81 17.91,48.73 18.48,48.63 L18.48,38.51 C20.4522869,38.1803678 22.2521696,37.1851385 23.58,35.69 C25.3026145,33.7685197 26.2411901,31.2704097 26.21,28.69 L26.21,16.29 L34.83,16.29 L34.83,28.64 C34.9233812,33.6366802 33.0443601,38.4689619 29.6,42.09 C28.9747225,42.756177 28.3066362,43.3808377 27.6,43.96 L28.4,45.43 C28.4,45.43 28.6,45.32 28.6,45.33 C29.3730409,44.7120473 30.1046186,44.0439398 30.79,43.33 C34.4513843,39.4587583 36.4849042,34.3284167 36.47,29 L36.47,14.56 L24.37,14.56 L24.37,28.64 Z" id="Shape-13" fill="#FFDD00"></path>
                            <path d="M34.81,8.12 L26.25,8.12 L26.25,2.82 C25.72,2.61 25,2.4 24.43,2.18 L24.43,9.87 L36.62,9.87 L36.62,7.87 C36.15,7.59 35.43,7.27 34.81,6.87 L34.81,8.12 L34.81,8.12 Z" id="Shape-14" fill="#FFDD00"></path>
                        </g>
                    </g>
                </g>
            </g>
        </g>
    </g>
</svg>