<?xml version="1.0" encoding="UTF-8" standalone="no"?><!DOCTYPE svg PUBLIC "-//W3C//DTD SVG 1.1//EN" "http://www.w3.org/Graphics/SVG/1.1/DTD/svg11.dtd"><svg width="100%" height="100%" viewBox="0 0 70 76" version="1.1" xmlns="http://www.w3.org/2000/svg" xmlns:xlink="http://www.w3.org/1999/xlink" xml:space="preserve" xmlns:serif="http://www.serif.com/" style="fill-rule:evenodd;clip-rule:evenodd;stroke-linejoin:round;stroke-miterlimit:2;"><g><clipPath id="_clip1"><rect x="0" y="0.001" width="69" height="75.75"/></clipPath><g clip-path="url(#_clip1)"><rect x="0.229" y="56.052" width="68.772" height="19.699" style="fill:#53924f;fill-rule:nonzero;"/><path d="M6.254,0.281l0.019,2.186l-1.7,0.017l0.082,8.741l-2.865,0.026l-0.078,-8.742l-1.692,0.014l-0.02,-2.186l6.254,-0.056Z" style="fill:#365888;fill-rule:nonzero;"/><path d="M13.649,0.214l0.098,10.93l-2.861,0.025l-0.042,-4.59l-0.857,0.008l0.042,4.591l-2.861,0.025l-0.102,-10.93l2.865,-0.026l0.033,3.908l0.858,-0.009l-0.037,-3.907l2.864,-0.025Z" style="fill:#365888;fill-rule:nonzero;"/><path d="M14.637,0.206l4.772,-0.045l0.02,2.189l-1.911,0.017l0.019,2.071l1.788,-0.014l0.02,2.08l-1.788,0.014l0.02,2.404l2.102,-0.02l0.02,2.189l-4.964,0.045l-0.098,-10.93Z" style="fill:#365888;fill-rule:nonzero;"/><path d="M29.028,4.443l0.059,6.603c0.185,0.009 0.343,0.014 0.475,0.012c0.593,-0.006 1.003,-0.163 1.231,-0.471c0.228,-0.305 0.337,-0.94 0.326,-1.9l-0.02,-2.133c-0.008,-0.887 -0.146,-1.464 -0.413,-1.727c-0.267,-0.266 -0.821,-0.392 -1.661,-0.386m-6.49,-4.381l6.498,-0.059c1.76,-0.016 3.112,0.115 4.059,0.398c0.947,0.28 1.661,0.688 2.142,1.231c0.481,0.541 0.807,1.198 0.984,1.971c0.174,0.772 0.269,1.973 0.286,3.594l0.02,2.262c0.014,1.657 -0.138,2.863 -0.458,3.624c-0.321,0.762 -0.916,1.349 -1.785,1.764c-0.871,0.414 -2.01,0.627 -3.421,0.641l-1.731,0.016l0.096,10.449l-6.454,0.059l-0.236,-25.95Z" style="fill:#365888;fill-rule:nonzero;"/><path d="M44.516,4.551l-0,5.768c0.728,0 1.234,-0.106 1.526,-0.313c0.292,-0.21 0.438,-0.885 0.438,-2.029l0,-1.425c0,-0.823 -0.14,-1.363 -0.421,-1.618c-0.281,-0.257 -0.796,-0.383 -1.54,-0.383m-6.459,-4.44l4.57,0c3.047,0 5.107,0.123 6.186,0.367c1.079,0.246 1.959,0.873 2.637,1.884c0.68,1.01 1.02,2.62 1.02,4.834c-0,2.018 -0.242,3.375 -0.722,4.069c-0.481,0.695 -1.426,1.112 -2.837,1.252c1.277,0.33 2.137,0.772 2.575,1.329c0.439,0.557 0.714,1.067 0.821,1.531c0.107,0.465 0.16,1.744 0.16,3.838l0,6.843l-5.995,0l-0,-8.624c-0,-1.388 -0.107,-2.25 -0.315,-2.58c-0.208,-0.333 -0.759,-0.496 -1.647,-0.496l-0,11.7l-6.453,0l-0,-25.947Z" style="fill:#365888;fill-rule:nonzero;"/><path d="M62.725,7.1c0,-1.17 -0.061,-1.92 -0.185,-2.244c-0.124,-0.328 -0.377,-0.49 -0.765,-0.49c-0.328,-0 -0.579,0.131 -0.75,0.397c-0.174,0.263 -0.261,1.044 -0.261,2.337l-0,11.745c-0,1.461 0.056,2.362 0.171,2.704c0.115,0.341 0.379,0.512 0.795,0.512c0.416,0 0.698,-0.196 0.818,-0.59c0.118,-0.395 0.177,-1.333 0.177,-2.813l0,-11.558Zm6.257,8.266c0,2.527 -0.056,4.316 -0.171,5.366c-0.116,1.052 -0.473,2.012 -1.071,2.883c-0.599,0.87 -1.408,1.539 -2.431,2.004c-1.021,0.464 -2.21,0.699 -3.567,0.699c-1.358,0 -2.446,-0.221 -3.469,-0.66c-1.026,-0.44 -1.849,-1.1 -2.473,-1.982c-0.624,-0.879 -0.995,-1.839 -1.113,-2.874c-0.121,-1.036 -0.177,-2.85 -0.177,-5.439l-0,-4.302c-0,-2.528 0.056,-4.316 0.171,-5.369c0.115,-1.049 0.47,-2.012 1.071,-2.88c0.599,-0.87 1.408,-1.539 2.429,-2.004c1.02,-0.467 2.209,-0.7 3.566,-0.7c1.358,0 2.446,0.222 3.472,0.661c1.025,0.439 1.849,1.1 2.473,1.982c0.624,0.879 0.995,1.836 1.116,2.874c0.118,1.036 0.177,2.847 0.177,5.439l-0,4.302l-0.003,-0Z" style="fill:#365888;fill-rule:nonzero;"/><path d="M13.663,36.302l-5.762,-0l-0,-1.848c-0,-0.862 -0.073,-1.413 -0.222,-1.648c-0.146,-0.238 -0.394,-0.356 -0.737,-0.356c-0.373,0 -0.654,0.16 -0.848,0.479c-0.194,0.319 -0.287,0.8 -0.287,1.452c-0,0.832 0.11,1.459 0.323,1.879c0.205,0.422 0.79,0.929 1.754,1.525c2.763,1.713 4.503,3.121 5.219,4.218c0.717,1.1 1.077,2.872 1.077,5.316c0,1.777 -0.2,3.087 -0.596,3.929c-0.399,0.843 -1.166,1.548 -2.307,2.119c-1.142,0.571 -2.468,0.854 -3.98,0.854c-1.662,-0 -3.078,-0.328 -4.253,-0.985c-1.175,-0.658 -1.942,-1.495 -2.308,-2.511c-0.365,-1.016 -0.545,-2.46 -0.545,-4.33l0,-1.632l5.762,-0l0,3.037c0,0.935 0.082,1.537 0.245,1.802c0.163,0.266 0.449,0.401 0.862,0.401c0.414,-0 0.72,-0.168 0.922,-0.507c0.203,-0.339 0.301,-0.842 0.301,-1.511c0,-1.467 -0.191,-2.43 -0.576,-2.881c-0.391,-0.453 -1.36,-1.209 -2.904,-2.264c-1.543,-1.069 -2.566,-1.845 -3.066,-2.326c-0.5,-0.484 -0.916,-1.15 -1.245,-2.004c-0.329,-0.854 -0.492,-1.943 -0.492,-3.266c-0,-1.912 0.233,-3.309 0.7,-4.191c0.466,-0.884 1.223,-1.575 2.262,-2.074c1.04,-0.498 2.3,-0.747 3.772,-0.747c1.611,-0 2.985,0.271 4.121,0.817c1.135,0.543 1.886,1.229 2.254,2.058c0.368,0.825 0.554,2.23 0.554,4.212l-0,0.985l-0,-0.002Z" style="fill:#365888;fill-rule:nonzero;"/><path d="M10.525,60.083l-0,1.489c-0.427,-0.207 -0.784,-0.311 -1.071,-0.311c-0.394,0 -0.734,0.098 -1.015,0.291c-0.281,0.193 -0.514,0.493 -0.7,0.896c-0.182,0.403 -0.32,0.912 -0.407,1.531c-0.087,0.618 -0.132,1.349 -0.132,2.192c-0,3.034 0.781,4.551 2.341,4.551c0.273,-0 0.599,-0.084 0.984,-0.255l-0,1.52c-0.399,0.224 -0.846,0.333 -1.344,0.333c-2.498,-0 -3.746,-2.032 -3.746,-6.094c-0,-2.194 0.303,-3.829 0.913,-4.901c0.61,-1.072 1.543,-1.606 2.8,-1.606c0.463,-0 0.921,0.123 1.374,0.366l0.003,-0.002Z" style="fill:#fff;fill-rule:nonzero;"/><path d="M18.006,66.327c0,2.17 -0.241,3.709 -0.728,4.622c-0.483,0.912 -1.295,1.368 -2.437,1.368c-1.197,0 -2.043,-0.49 -2.532,-1.472c-0.483,-0.96 -0.728,-2.665 -0.728,-5.117c0,-2.186 0.239,-3.731 0.72,-4.638c0.483,-0.912 1.304,-1.368 2.459,-1.368c1.034,-0 1.799,0.352 2.302,1.058c0.329,0.473 0.57,1.142 0.719,2.012c0.149,0.806 0.225,1.985 0.225,3.533l0,0.002Zm-1.742,0.177c-0,-2.128 -0.096,-3.538 -0.287,-4.232c-0.191,-0.7 -0.585,-1.05 -1.175,-1.05c-0.59,-0 -0.986,0.322 -1.183,0.963c-0.191,0.646 -0.287,1.945 -0.287,3.899c0,1.797 0.101,3.045 0.304,3.739c0.208,0.658 0.596,0.986 1.166,0.986c0.571,-0 0.942,-0.308 1.15,-0.924c0.208,-0.61 0.312,-1.738 0.312,-3.381Z" style="fill:#fff;fill-rule:nonzero;"/><path d="M19.649,59.884l2.19,0c0.905,0 1.58,0.216 2.021,0.644c0.559,0.557 0.837,1.408 0.837,2.553c0,0.881 -0.149,1.587 -0.444,2.119c-0.295,0.531 -0.716,0.862 -1.264,0.99l2.268,5.976l-1.687,0l-2.259,-6.015l-0,6.015l-1.662,0l0,-12.282Zm1.662,5.442c0.643,-0 1.099,-0.149 1.366,-0.445c0.267,-0.297 0.399,-0.798 0.399,-1.504c-0,-0.38 -0.028,-0.708 -0.085,-0.979c-0.056,-0.272 -0.143,-0.49 -0.264,-0.661c-0.121,-0.171 -0.275,-0.294 -0.464,-0.375c-0.188,-0.081 -0.413,-0.12 -0.674,-0.12l-0.281,-0l-0,4.081l0.003,0.003Z" style="fill:#fff;fill-rule:nonzero;"/><path d="M26.543,59.884l2.19,0c1.054,0 1.821,0.266 2.301,0.795c0.481,0.535 0.72,1.386 0.72,2.547c0,1.635 -0.483,2.69 -1.447,3.166c-0.484,0.218 -1.187,0.328 -2.103,0.328l0,5.449l-1.661,0l-0,-12.285Zm1.661,5.419c0.686,0 1.161,-0.137 1.422,-0.414c0.267,-0.28 0.399,-0.781 0.399,-1.495c0,-0.714 -0.129,-1.268 -0.382,-1.606c-0.253,-0.339 -0.658,-0.51 -1.206,-0.51l-0.23,0l-0,4.025l-0.003,0Z" style="fill:#fff;fill-rule:nonzero;"/><path d="M39.206,66.327c-0,2.17 -0.242,3.709 -0.728,4.622c-0.484,0.912 -1.296,1.368 -2.437,1.368c-1.198,0 -2.044,-0.49 -2.533,-1.472c-0.483,-0.96 -0.728,-2.665 -0.728,-5.117c0,-2.186 0.239,-3.731 0.72,-4.638c0.483,-0.912 1.304,-1.368 2.459,-1.368c1.035,-0 1.799,0.352 2.302,1.058c0.329,0.473 0.571,1.142 0.72,2.012c0.149,0.806 0.225,1.985 0.225,3.533l-0,0.002Zm-1.743,0.177c-0,-2.128 -0.096,-3.538 -0.287,-4.232c-0.191,-0.7 -0.584,-1.05 -1.175,-1.05c-0.59,-0 -0.986,0.322 -1.183,0.963c-0.191,0.646 -0.287,1.945 -0.287,3.899c0,1.797 0.102,3.045 0.304,3.739c0.208,0.658 0.596,0.986 1.166,0.986c0.571,-0 0.942,-0.308 1.15,-0.924c0.208,-0.61 0.312,-1.738 0.312,-3.381Z" style="fill:#fff;fill-rule:nonzero;"/><path d="M40.855,59.884l2.189,0c0.905,0 1.58,0.216 2.021,0.644c0.559,0.557 0.838,1.408 0.838,2.553c-0,0.881 -0.149,1.587 -0.445,2.119c-0.295,0.531 -0.716,0.862 -1.264,0.99l2.268,5.976l-1.687,0l-2.259,-6.015l-0,6.015l-1.661,0l-0,-12.282Zm1.661,5.442c0.643,-0 1.099,-0.149 1.366,-0.445c0.267,-0.297 0.399,-0.798 0.399,-1.504c-0,-0.38 -0.028,-0.708 -0.085,-0.979c-0.056,-0.272 -0.143,-0.49 -0.264,-0.661c-0.121,-0.171 -0.275,-0.294 -0.464,-0.375c-0.188,-0.081 -0.413,-0.12 -0.674,-0.12l-0.281,-0l-0,4.081l0.003,0.003Z" style="fill:#fff;fill-rule:nonzero;"/><path d="M49.504,59.884l1.295,0l2.645,12.282l-1.647,0l-0.464,-2.393l-2.445,0l-0.472,2.393l-1.597,0l2.685,-12.282Zm1.59,8.607l-0.368,-1.956c-0.244,-1.333 -0.444,-2.752 -0.598,-4.263c-0.076,0.736 -0.172,1.483 -0.287,2.239c-0.118,0.756 -0.256,1.559 -0.416,2.407l-0.304,1.576l1.973,0l0,-0.003Z" style="fill:#fff;fill-rule:nonzero;"/><path d="M53.171,59.884l5.408,0l-0,1.447l-1.861,0l-0,10.835l-1.63,0l-0,-10.835l-1.917,0l-0,-1.447Z" style="fill:#fff;fill-rule:nonzero;"/><path d="M59.496,59.884l4.419,0l-0,1.4l-2.758,-0l0,3.89l2.446,0l-0,1.4l-2.446,-0l0,4.193l2.758,-0l-0,1.399l-4.419,0l0,-12.282Z" style="fill:#fff;fill-rule:nonzero;"/><path d="M29.261,47.182c-0.022,0.207 -0.037,0.415 -0.039,0.622c-0.006,0.414 0.014,0.828 0.042,1.242c0.079,0.826 0.202,1.652 0.427,2.469c0.115,0.409 0.253,0.817 0.433,1.223c0.093,0.205 0.191,0.406 0.318,0.608c0.059,0.103 0.129,0.198 0.207,0.305c0.105,0.129 0.245,0.26 0.425,0.355c0.18,0.098 0.388,0.149 0.573,0.157c0.183,0.008 0.352,-0.014 0.495,-0.048c0.289,-0.067 0.514,-0.167 0.725,-0.268c0.416,-0.205 0.773,-0.423 1.124,-0.636c0.703,-0.417 1.366,-0.837 2.058,-1.192c0.688,-0.358 1.397,-0.658 2.119,-0.896c1.439,-0.495 2.957,-0.711 4.486,-0.697c1.529,0.012 3.036,0.272 4.472,0.784c0.719,0.252 1.422,0.571 2.108,0.938c0.688,0.369 1.352,0.792 2.066,1.212c0.36,0.212 0.725,0.434 1.189,0.621c0.236,0.09 0.506,0.185 0.879,0.174c0.377,-0 0.807,-0.238 1.001,-0.501c0.323,-0.429 0.495,-0.846 0.638,-1.265c0.141,-0.418 0.242,-0.835 0.321,-1.249c0.148,-0.831 0.216,-1.66 0.23,-2.488c-0,-0.414 -0.006,-0.826 -0.034,-1.237c-0.017,-0.207 -0.039,-0.412 -0.07,-0.616c-0.037,-0.202 -0.056,-0.417 -0.163,-0.596c0.067,0.397 -0.017,0.803 -0.065,1.203c-0.053,0.4 -0.129,0.798 -0.21,1.19c-0.161,0.786 -0.357,1.564 -0.616,2.306c-0.124,0.37 -0.264,0.734 -0.43,1.067c-0.16,0.33 -0.365,0.649 -0.565,0.842c-0.065,0.048 -0.031,0.011 -0.065,0.011c-0.036,-0.002 -0.163,-0.039 -0.298,-0.112c-0.278,-0.142 -0.601,-0.366 -0.924,-0.596c-1.288,-0.96 -2.752,-1.912 -4.357,-2.564c-1.608,-0.652 -3.359,-0.982 -5.09,-0.999c-0.866,-0.006 -1.734,0.059 -2.594,0.199c-0.86,0.145 -1.704,0.38 -2.516,0.68c-1.625,0.616 -3.103,1.545 -4.413,2.511c-0.326,0.235 -0.649,0.47 -0.95,0.652c-0.149,0.089 -0.295,0.162 -0.402,0.199c-0.112,0.036 -0.135,0.03 -0.123,0.041c-0,0.003 -0.017,0 -0.045,-0.025c-0.048,-0.053 -0.11,-0.112 -0.163,-0.182c-0.11,-0.128 -0.211,-0.279 -0.312,-0.433c-0.194,-0.314 -0.369,-0.658 -0.526,-1.016c-0.312,-0.714 -0.585,-1.47 -0.801,-2.243c-0.112,-0.386 -0.216,-0.775 -0.295,-1.17l-0.27,-0.593l0,0.011Z" style="fill:#365888;fill-rule:nonzero;"/><path d="M55.439,35.686c-0.532,-2.189 -1.957,-3.765 -3.857,-4.924c-4.528,-2.81 -10.441,-3.241 -15.371,-1.198c-4.689,2.01 -5.872,5.727 -6.69,10.348c-0.34,2.192 -0.582,4.342 -0.441,6.584l0.253,0.159c0.672,0.403 1.456,0.137 2.099,-0.092c1.555,-0.608 3.005,-1.408 4.52,-2.032c3.955,-1.755 8.443,-1.968 12.614,-0.837c2.117,0.543 4.115,1.472 6.164,2.228c-1.984,-0.946 -3.909,-2.03 -6.02,-2.698c-4.225,-1.453 -9.006,-1.358 -13.149,0.347c-1.543,0.593 -2.993,1.363 -4.514,1.925c-0.219,0.073 -0.553,0.185 -0.812,0.205c-0.011,-1.859 0.197,-3.751 0.503,-5.582c0.455,-2.401 1.02,-4.917 2.493,-6.913c0.914,-1.128 2.156,-1.946 3.477,-2.55c1.512,-0.658 3.145,-1.058 4.809,-1.212c-0.222,-0.064 -0.36,-0.185 -0.36,-0.414c0,-0.49 0.613,-0.49 1.372,-0.49c0.759,-0 1.369,-0 1.369,0.49c-0,0.17 -0.079,0.28 -0.208,0.352c2.622,0.093 5.231,0.784 7.479,2.066c1.821,1.008 3.154,2.382 3.755,4.397c0.95,2.936 0.675,6.077 0.953,9.128c-0.053,-3.099 0.402,-6.242 -0.433,-9.282l-0.005,-0.005Z" style="fill:#365888;fill-rule:nonzero;"/><path d="M30.894,47.303c0.48,1.285 0.877,2.583 1.433,3.798c0.025,0.053 0.042,0.05 0.028,0.042c-0.039,-0.006 0.079,-0.006 0.194,-0.073c0.793,-0.484 1.408,-1.271 2.215,-1.794c2.161,-1.556 4.966,-1.956 7.547,-1.598c-3.323,0.078 -6.271,0.923 -8.643,3.319c-0.442,0.387 -1.442,1.221 -1.864,0.362c-0.517,-1.302 -0.784,-2.665 -0.91,-4.051l-0,-0.005Z" style="fill:#365888;fill-rule:nonzero;"/><path d="M42.521,34.864c-0.239,-1.391 -0.295,-2.788 -0.312,-4.193l0.258,0.305c-1.329,-0.14 -2.754,0.115 -4.039,0.507c-0.784,0.224 -1.613,0.579 -2.364,0.904c1.372,-1.053 3.005,-1.764 4.728,-1.999c0.661,-0.081 1.352,-0.106 2.046,0.012c-0.019,1.494 -0.059,2.983 -0.317,4.464Z" style="fill:#365888;fill-rule:nonzero;"/><path d="M54.444,48.064c-1.484,-1.274 -3.415,-1.604 -5.225,-2.189c1.88,-0.322 4.413,0.294 5.225,2.189Z" style="fill:#365888;fill-rule:nonzero;"/><path d="M54.36,49.219c-1.02,-0.96 -2.358,-1.231 -3.606,-1.774c1.358,-0.37 3.316,0.252 3.606,1.774Z" style="fill:#365888;fill-rule:nonzero;"/><path d="M45.563,38.39c-0,-0.44 -0.107,-0.874 -0.321,-1.288l-0.025,-0.075c-0.02,-0.037 -0.042,-0.07 -0.067,-0.104l-0.04,-0.059c-0.025,-0.039 -0.05,-0.081 -0.087,-0.134l-0.177,-0.249l-0.017,0.014c0,-0 -0.005,-0.006 -0.008,-0.009c-0.121,-0.131 -0.253,-0.254 -0.399,-0.366l-0.135,-0.101c-0.043,-0.025 -0.085,-0.048 -0.132,-0.07l-0.085,-0.067c-0.056,-0.031 -0.115,-0.056 -0.205,-0.098l-0.098,0.215l0.039,-0.243l-0.07,-0.025c-0.186,-0.07 -0.391,-0.124 -0.661,-0.16l-0.062,-0.008c-0.14,-0.02 -0.323,-0.062 -0.413,-0.009l-0.062,-0.014l-0.033,0c-0.118,0.011 -0.231,0.025 -0.343,0.045l-0.065,0.02c0,-0 -0.011,0.005 -0.017,0.008l-0.025,-0.006l-0.065,0.017c-0.132,0.034 -0.261,0.079 -0.382,0.129l-0.059,0.028l0.084,0.171l-0.157,-0.137c-0.056,0.025 -0.115,0.05 -0.169,0.081l-0.076,0.042l-0.008,0.019c-0.07,0.042 -0.132,0.081 -0.169,0.112l-0.078,0.039c-0.09,0.068 -0.175,0.14 -0.259,0.219l-0.042,0.047c-0.287,0.286 -0.506,0.622 -0.635,0.969l-0.043,0.073c-0.036,0.098 -0.064,0.195 -0.098,0.352l0,0.006c-0.02,0.087 -0.031,0.176 -0.039,0.266c-0.009,0.025 -0.017,0.059 -0.026,0.101c-0.005,0.084 -0.011,0.167 -0.011,0.254c0,0.151 0.011,0.303 0.037,0.448l0.019,0.067c0.003,0.02 0.006,0.039 0.012,0.059l-0.006,0.011l0.02,0.079c0.014,0.056 0.028,0.114 0.045,0.17l0.036,0.07c0.04,0.118 0.082,0.227 0.121,0.297c0.009,0.028 0.02,0.067 0.048,0.126c0.017,0.031 0.034,0.056 0.067,0.101c0.073,0.123 0.152,0.238 0.256,0.369c0.02,0.028 0.037,0.059 0.059,0.084l0.054,0.048c0.033,0.039 0.07,0.07 0.07,0.075l0.042,0.054c0.067,0.064 0.135,0.123 0.242,0.204l0.022,0.033l0.031,0c0.065,0.045 0.127,0.09 0.177,0.115c0.025,0.023 0.054,0.045 0.104,0.076c0.031,0.017 0.062,0.031 0.121,0.05c0.112,0.059 0.228,0.107 0.371,0.16c0.031,0.017 0.065,0.03 0.152,0.047l0.02,0l0.193,0.053l0.009,-0.047l0.059,0.034l-0,0.027c0.039,0.009 0.073,0.014 0.109,0.02l0.321,0.045l-0,-0.02c0.045,0 0.093,0 0.135,-0.005l0.079,-0c0.044,-0 0.087,-0.012 0.182,-0.028c0.118,-0.014 0.234,-0.028 0.352,-0.056l0.14,-0.042c0.079,-0.023 0.155,-0.045 0.188,-0.062l0.118,-0.042c0.057,-0.025 0.11,-0.047 0.2,-0.098c0.008,-0.008 0.02,-0.014 0.028,-0.022c0.09,-0.048 0.183,-0.095 0.287,-0.165c0.025,-0.02 0.048,-0.04 0.09,-0.079c0.118,-0.089 0.23,-0.187 0.331,-0.291l0.09,-0.106c0.107,-0.121 0.2,-0.249 0.279,-0.375c0.042,-0.056 0.07,-0.109 0.087,-0.163l0.022,-0.039c0.034,-0.056 0.065,-0.112 0.099,-0.193c0.073,-0.173 0.129,-0.367 0.16,-0.543l0.025,-0.112l-0.005,-0.017c0.019,-0.128 0.039,-0.268 0.039,-0.417l0.003,-0.005Zm-2.971,2.634c-1.4,-0 -2.538,-1.131 -2.538,-2.528c-0,-1.397 1.135,-2.528 2.538,-2.528c1.402,0 2.535,1.131 2.535,2.528c0,1.397 -1.135,2.528 -2.535,2.528Z" style="fill:#365888;fill-rule:nonzero;"/><path d="M42.337,37.777c-0.081,-0.14 -0.272,-0.179 -0.427,-0.09c-0.154,0.09 -0.216,0.274 -0.135,0.412c0.082,0.14 0.273,0.179 0.427,0.089c0.155,-0.089 0.217,-0.274 0.135,-0.414" style="fill:#e6e9f5;fill-rule:nonzero;"/><path d="M42.092,39.073c-0.082,0.14 -0.02,0.324 0.135,0.414c0.154,0.089 0.345,0.047 0.427,-0.09c0.081,-0.137 0.02,-0.324 -0.135,-0.411c-0.155,-0.09 -0.346,-0.048 -0.427,0.089" style="fill:#e6e9f5;fill-rule:nonzero;"/><path d="M42.845,39.213c0.081,0.139 0.272,0.179 0.427,0.089c0.154,-0.089 0.216,-0.274 0.135,-0.414c-0.082,-0.137 -0.273,-0.179 -0.427,-0.09c-0.155,0.09 -0.217,0.275 -0.135,0.415Z" style="fill:#e6e9f5;fill-rule:nonzero;"/><path d="M43.769,37.802c0.073,-0.126 0.006,-0.3 -0.149,-0.387c-0.154,-0.089 -0.34,-0.059 -0.413,0.065c-0.073,0.126 -0.005,0.299 0.149,0.389c0.155,0.089 0.34,0.061 0.413,-0.065" style="fill:#e6e9f5;fill-rule:nonzero;"/><path d="M43.286,37.217c0.073,-0.126 0.006,-0.299 -0.149,-0.386c-0.155,-0.09 -0.34,-0.059 -0.413,0.064c-0.073,0.126 -0.006,0.3 0.149,0.389c0.154,0.09 0.34,0.059 0.413,-0.064" style="fill:#e6e9f5;fill-rule:nonzero;"/><path d="M41.131,38.536c-0.147,-0 -0.262,0.145 -0.262,0.322c0,0.176 0.118,0.321 0.262,0.321c0.143,0 0.261,-0.145 0.261,-0.321c-0,-0.177 -0.118,-0.322 -0.261,-0.322Z" style="fill:#e6e9f5;fill-rule:nonzero;"/><path d="M43.518,38.841c-0,-0.179 0.118,-0.321 0.261,-0.321c0.143,-0 0.261,0.145 0.261,0.321c0,0.177 -0.118,0.322 -0.261,0.322c-0.143,0 -0.261,-0.145 -0.261,-0.322Z" style="fill:#b5c2df;fill-rule:nonzero;"/><path d="M41.414,39.188c-0.073,0.126 -0.005,0.299 0.149,0.389c0.155,0.089 0.34,0.059 0.413,-0.065c0.074,-0.126 0.006,-0.299 -0.149,-0.389c-0.154,-0.089 -0.34,-0.058 -0.413,0.065Z" style="fill:#b5c2df;fill-rule:nonzero;"/><path d="M42.604,39.856c0.073,0.126 0.255,0.154 0.413,0.064c0.154,-0.089 0.222,-0.263 0.149,-0.386c-0.073,-0.126 -0.256,-0.154 -0.413,-0.064c-0.155,0.089 -0.222,0.263 -0.149,0.389" style="fill:#b5c2df;fill-rule:nonzero;"/><path d="M43.354,39.733c0.073,0.126 0.255,0.154 0.413,0.064c0.154,-0.089 0.222,-0.263 0.149,-0.389c-0.073,-0.126 -0.256,-0.154 -0.413,-0.064c-0.155,0.089 -0.222,0.263 -0.149,0.386" style="fill:#b5c2df;fill-rule:nonzero;"/><path d="M44.048,38.454c0.144,0 0.262,-0.145 0.262,-0.322c-0,-0.176 -0.118,-0.321 -0.262,-0.321c-0.143,-0 -0.261,0.145 -0.261,0.321c0,0.177 0.118,0.322 0.261,0.322Z" style="fill:#b5c2df;fill-rule:nonzero;"/><path d="M41.898,39.772c-0.073,0.126 -0.006,0.3 0.149,0.389c0.154,0.09 0.34,0.059 0.413,-0.064c0.073,-0.126 0.005,-0.3 -0.149,-0.389c-0.155,-0.09 -0.34,-0.059 -0.413,0.064Z" style="fill:#b5c2df;fill-rule:nonzero;"/><path d="M41.184,39.652c-0.099,0.087 -0.079,0.257 0.045,0.383c0.123,0.126 0.306,0.16 0.404,0.073c0.101,-0.087 0.082,-0.257 -0.045,-0.383c-0.123,-0.126 -0.306,-0.16 -0.404,-0.073Z" style="fill:#b5c2df;fill-rule:nonzero;"/><path d="M43.998,37.341c0.101,-0.087 0.078,-0.258 -0.045,-0.384c-0.124,-0.125 -0.307,-0.159 -0.405,-0.072c-0.098,0.087 -0.079,0.257 0.045,0.383c0.124,0.126 0.303,0.16 0.405,0.073Z" style="fill:#b5c2df;fill-rule:nonzero;"/><path d="M42.267,38.497c-0,-0.179 0.146,-0.322 0.323,-0.322c0.177,0 0.323,0.146 0.323,0.322c0,0.176 -0.146,0.322 -0.323,0.322c-0.177,0 -0.323,-0.146 -0.323,-0.322Z" style="fill:#f7f8fb;fill-rule:nonzero;"/><path d="M43.087,37.918c0.082,-0.14 0.02,-0.325 -0.135,-0.415c-0.154,-0.089 -0.345,-0.047 -0.427,0.09c-0.081,0.137 -0.019,0.325 0.135,0.414c0.155,0.09 0.346,0.048 0.427,-0.089Z" style="fill:#f7f8fb;fill-rule:nonzero;"/><path d="M42.856,37.613c-0.082,-0.14 -0.273,-0.179 -0.427,-0.09c-0.155,0.09 -0.217,0.274 -0.135,0.412c0.081,0.139 0.272,0.179 0.427,0.089c0.155,-0.089 0.216,-0.274 0.135,-0.414" style="fill:#f7f8fb;fill-rule:nonzero;"/><path d="M41.549,38.679c-0,-0.179 0.129,-0.322 0.292,-0.322c0.163,-0 0.292,0.145 0.292,0.322c0,0.176 -0.129,0.322 -0.292,0.322c-0.163,-0 -0.292,-0.146 -0.292,-0.322Z" style="fill:#f7f8fb;fill-rule:nonzero;"/><path d="M42.577,37.133c-0.073,-0.126 -0.256,-0.154 -0.413,-0.064c-0.155,0.089 -0.222,0.263 -0.149,0.386c0.073,0.126 0.256,0.154 0.413,0.065c0.155,-0.09 0.222,-0.264 0.149,-0.389" style="fill:#f7f8fb;fill-rule:nonzero;"/><path d="M41.4,37.825c-0.146,0 -0.261,0.146 -0.261,0.322c-0,0.176 0.118,0.322 0.261,0.322c0.143,-0 0.261,-0.146 0.261,-0.322c0,-0.176 -0.118,-0.322 -0.261,-0.322Z" style="fill:#f7f8fb;fill-rule:nonzero;"/><path d="M40.881,37.858c-0.124,-0.042 -0.264,0.059 -0.312,0.23c-0.048,0.17 0.014,0.341 0.138,0.386c0.123,0.042 0.264,-0.059 0.312,-0.23c0.047,-0.17 -0.014,-0.344 -0.138,-0.386Z" style="fill:#829bc6;fill-rule:nonzero;"/><path d="M42.891,40.288c0.025,0.129 0.186,0.199 0.357,0.154c0.171,-0.042 0.292,-0.185 0.267,-0.314c-0.025,-0.128 -0.185,-0.198 -0.357,-0.153c-0.171,0.044 -0.292,0.184 -0.267,0.313Z" style="fill:#829bc6;fill-rule:nonzero;"/><path d="M40.72,39.134c-0.124,0.045 -0.166,0.216 -0.093,0.375c0.073,0.163 0.23,0.255 0.354,0.21c0.124,-0.044 0.166,-0.215 0.093,-0.375c-0.073,-0.162 -0.231,-0.254 -0.354,-0.21Z" style="fill:#829bc6;fill-rule:nonzero;"/><path d="M42.208,40.427c-0.023,0.129 0.104,0.249 0.281,0.269c0.177,0.02 0.337,-0.073 0.359,-0.202c0.023,-0.128 -0.103,-0.249 -0.281,-0.268c-0.177,-0.02 -0.337,0.073 -0.359,0.201Z" style="fill:#829bc6;fill-rule:nonzero;"/><path d="M44.081,39.789c0.101,0.084 0.27,0.037 0.374,-0.106c0.104,-0.143 0.107,-0.327 0.005,-0.409c-0.101,-0.084 -0.269,-0.036 -0.373,0.107c-0.104,0.142 -0.107,0.327 -0.006,0.408Z" style="fill:#829bc6;fill-rule:nonzero;"/><path d="M44.461,37.856c0.124,-0.048 0.166,-0.215 0.093,-0.375c-0.073,-0.162 -0.23,-0.255 -0.354,-0.21c-0.124,0.045 -0.166,0.216 -0.093,0.375c0.073,0.162 0.231,0.255 0.354,0.21Z" style="fill:#829bc6;fill-rule:nonzero;"/><path d="M40.498,38.465c-0.101,0 -0.183,0.146 -0.183,0.322c0,0.177 0.082,0.322 0.183,0.322c0.101,0 0.183,-0.145 0.183,-0.322c-0,-0.176 -0.082,-0.322 -0.183,-0.322Z" style="fill:#829bc6;fill-rule:nonzero;"/><path d="M41.52,40.282c-0.051,0.086 0.033,0.229 0.188,0.319c0.154,0.089 0.323,0.089 0.374,-0c0.05,-0.087 -0.034,-0.23 -0.189,-0.319c-0.154,-0.09 -0.32,-0.09 -0.373,-0Z" style="fill:#829bc6;fill-rule:nonzero;"/><path d="M43.608,40.313c0.051,0.086 0.217,0.086 0.374,-0c0.155,-0.09 0.239,-0.233 0.189,-0.32c-0.051,-0.086 -0.22,-0.086 -0.374,0.003c-0.155,0.09 -0.239,0.233 -0.189,0.319" style="fill:#829bc6;fill-rule:nonzero;"/><path d="M44.679,38.528c0.101,-0 0.182,-0.146 0.182,-0.322c0,-0.177 -0.081,-0.322 -0.182,-0.322c-0.101,-0 -0.183,0.145 -0.183,0.322c0,0.176 0.082,0.322 0.183,0.322Z" style="fill:#829bc6;fill-rule:nonzero;"/><path d="M43.661,36.707c0.05,-0.086 -0.034,-0.229 -0.189,-0.319c-0.154,-0.089 -0.32,-0.089 -0.373,-0.002c-0.051,0.086 0.033,0.232 0.188,0.319c0.155,0.089 0.32,0.089 0.374,-0" style="fill:#829bc6;fill-rule:nonzero;"/><path d="M40.457,37.883c-0.068,-0.02 -0.163,0.106 -0.211,0.277c-0.048,0.171 -0.031,0.327 0.039,0.344c0.068,0.02 0.163,-0.106 0.211,-0.277c0.048,-0.171 0.031,-0.327 -0.039,-0.344Z" style="fill:#829bc6;fill-rule:nonzero;"/><path d="M40.992,40.028c-0.05,0.05 0.012,0.193 0.135,0.319c0.127,0.126 0.27,0.19 0.321,0.14c0.05,-0.05 -0.012,-0.193 -0.138,-0.319c-0.127,-0.126 -0.27,-0.19 -0.32,-0.14" style="fill:#829bc6;fill-rule:nonzero;"/><path d="M43.121,40.64c0.017,0.068 0.174,0.087 0.345,0.042c0.175,-0.044 0.298,-0.137 0.281,-0.207c-0.016,-0.067 -0.171,-0.086 -0.345,-0.042c-0.172,0.045 -0.298,0.137 -0.281,0.205" style="fill:#829bc6;fill-rule:nonzero;"/><path d="M44.721,39.106c0.067,0.02 0.163,-0.106 0.211,-0.277c0.047,-0.171 0.03,-0.327 -0.04,-0.344c-0.067,-0.02 -0.163,0.106 -0.211,0.277c-0.047,0.171 -0.031,0.328 0.04,0.344Z" style="fill:#829bc6;fill-rule:nonzero;"/><path d="M44.19,36.963c0.05,-0.051 -0.011,-0.194 -0.135,-0.32c-0.127,-0.125 -0.27,-0.19 -0.32,-0.139c-0.051,0.05 0.011,0.193 0.134,0.319c0.127,0.126 0.27,0.19 0.321,0.14Z" style="fill:#829bc6;fill-rule:nonzero;"/><path d="M40.584,39.636c-0.045,0.025 -0.011,0.171 0.073,0.327c0.085,0.157 0.192,0.263 0.237,0.241c0.045,-0.025 0.011,-0.171 -0.073,-0.328c-0.085,-0.156 -0.192,-0.263 -0.237,-0.24Z" style="fill:#829bc6;fill-rule:nonzero;"/><path d="M42.58,40.794c0,0.05 0.143,0.095 0.321,0.101c0.179,0.005 0.326,-0.034 0.326,-0.084c-0,-0.051 -0.144,-0.095 -0.321,-0.101c-0.18,-0.006 -0.326,0.034 -0.326,0.084Z" style="fill:#829bc6;fill-rule:nonzero;"/><path d="M44.588,39.655c0.042,0.025 0.154,-0.076 0.247,-0.227c0.093,-0.151 0.135,-0.296 0.093,-0.322c-0.043,-0.025 -0.155,0.076 -0.248,0.227c-0.092,0.151 -0.135,0.297 -0.09,0.322" style="fill:#829bc6;fill-rule:nonzero;"/><path d="M44.597,37.355c0.045,-0.025 0.011,-0.171 -0.073,-0.328c-0.085,-0.156 -0.192,-0.263 -0.236,-0.24c-0.045,0.025 -0.012,0.17 0.073,0.327c0.087,0.157 0.191,0.263 0.236,0.241Z" style="fill:#829bc6;fill-rule:nonzero;"/><path d="M42.603,36.195c-0,-0.05 -0.144,-0.095 -0.321,-0.101c-0.18,-0.005 -0.326,0.034 -0.326,0.084c0,0.051 0.143,0.095 0.32,0.101c0.18,0.006 0.327,-0.034 0.327,-0.084Z" style="fill:#829bc6;fill-rule:nonzero;"/><path d="M40.247,39.012c-0.048,0.017 -0.04,0.168 0.019,0.336c0.059,0.168 0.147,0.291 0.194,0.274c0.048,-0.017 0.04,-0.168 -0.019,-0.336c-0.059,-0.168 -0.147,-0.291 -0.194,-0.274Z" style="fill:#829bc6;fill-rule:nonzero;"/><path d="M41.866,40.775c-0.009,0.05 0.123,0.118 0.3,0.151c0.175,0.034 0.326,0.02 0.335,-0.028c0.011,-0.05 -0.124,-0.117 -0.301,-0.151c-0.177,-0.034 -0.326,-0.02 -0.334,0.028Z" style="fill:#829bc6;fill-rule:nonzero;"/><path d="M44.211,40.261c0.039,0.033 0.166,-0.051 0.281,-0.185c0.118,-0.135 0.18,-0.272 0.143,-0.302c-0.039,-0.034 -0.166,0.05 -0.281,0.184c-0.118,0.135 -0.18,0.272 -0.143,0.305" style="fill:#829bc6;fill-rule:nonzero;"/><path d="M44.934,37.978c0.048,-0.016 0.039,-0.168 -0.02,-0.335c-0.059,-0.168 -0.146,-0.292 -0.194,-0.275c-0.047,0.017 -0.039,0.168 0.02,0.336c0.059,0.168 0.146,0.291 0.194,0.274Z" style="fill:#829bc6;fill-rule:nonzero;"/><path d="M43.312,36.215c0.009,-0.05 -0.126,-0.118 -0.301,-0.151c-0.177,-0.034 -0.326,-0.02 -0.337,0.028c-0.008,0.05 0.127,0.117 0.301,0.151c0.174,0.034 0.326,0.02 0.334,-0.028" style="fill:#829bc6;fill-rule:nonzero;"/><path d="M40.97,36.73c-0.039,-0.034 -0.166,0.05 -0.281,0.184c-0.118,0.135 -0.18,0.272 -0.143,0.303c0.039,0.033 0.165,-0.051 0.281,-0.185c0.118,-0.135 0.18,-0.272 0.143,-0.305" style="fill:#829bc6;fill-rule:nonzero;"/><path d="M45.072,38.247c0.017,-0.003 0.009,-0.101 -0.017,-0.216c-0.028,-0.114 -0.062,-0.204 -0.078,-0.198c-0.017,0.003 -0.009,0.101 0.016,0.215c0.029,0.115 0.062,0.205 0.079,0.199Z" style="fill:#829bc6;fill-rule:nonzero;"/><path d="M43.28,36.104c0.003,-0.017 -0.087,-0.051 -0.202,-0.076c-0.115,-0.025 -0.211,-0.031 -0.217,-0.014c-0.002,0.017 0.088,0.05 0.203,0.076c0.115,0.025 0.211,0.03 0.216,0.014Z" style="fill:#829bc6;fill-rule:nonzero;"/><path d="M44.661,39.879c0,0 0.059,-0.027 0.104,-0.084c0.043,-0.055 0.065,-0.109 0.051,-0.117c-0.014,-0.008 -0.059,0.028 -0.104,0.084c-0.042,0.056 -0.065,0.109 -0.051,0.117Z" style="fill:#829bc6;fill-rule:nonzero;"/><path d="M44.673,37.19c0.054,0.103 0.118,0.176 0.144,0.162c0.011,-0.005 0.011,-0.028 0.005,-0.059c-0.059,-0.109 -0.129,-0.215 -0.205,-0.316c-0.02,0.02 0.006,0.112 0.056,0.21l0,0.003Z" style="fill:#829bc6;fill-rule:nonzero;"/><path d="M45.081,38.917c-0.028,-0.009 -0.101,0.134 -0.165,0.319c-0.065,0.185 -0.093,0.344 -0.068,0.353c0.014,0.005 0.045,-0.037 0.082,-0.11c0.073,-0.173 0.126,-0.358 0.16,-0.548c-0,-0.009 -0.006,-0.014 -0.009,-0.014Z" style="fill:#829bc6;fill-rule:nonzero;"/><path d="M44.163,40.355c-0.155,0.123 -0.264,0.24 -0.245,0.263c0.012,0.014 0.062,-0.009 0.132,-0.053c0.152,-0.107 0.296,-0.23 0.419,-0.37c0.006,-0.011 0.006,-0.02 0.003,-0.022c-0.017,-0.023 -0.157,0.058 -0.309,0.182Z" style="fill:#829bc6;fill-rule:nonzero;"/><path d="M43.78,40.702c-0.011,-0.025 -0.11,-0.014 -0.219,0.028c-0.11,0.039 -0.191,0.093 -0.18,0.121c0.008,0.022 0.084,0.016 0.174,-0.012c0.065,-0.028 0.13,-0.056 0.191,-0.089c0.026,-0.02 0.04,-0.034 0.034,-0.045l0,-0.003Z" style="fill:#829bc6;fill-rule:nonzero;"/><path d="M43.286,40.915c-0.003,-0.028 -0.166,-0.034 -0.36,-0.012c-0.197,0.023 -0.352,0.065 -0.349,0.093c0,0.017 0.062,0.025 0.152,0.025c0.185,-0.011 0.365,-0.039 0.54,-0.087c0.011,-0.005 0.016,-0.014 0.016,-0.019Z" style="fill:#829bc6;fill-rule:nonzero;"/><path d="M42.138,40.948c-0.067,-0.017 -0.126,-0.014 -0.129,0l-0,0.008c0.081,0.02 0.163,0.034 0.247,0.045c-0.003,-0.017 -0.053,-0.039 -0.118,-0.053Z" style="fill:#829bc6;fill-rule:nonzero;"/><path d="M41.886,40.911c0.011,-0.025 -0.121,-0.114 -0.298,-0.201c-0.177,-0.084 -0.332,-0.132 -0.343,-0.107c-0.008,0.014 0.034,0.051 0.101,0.093c0.163,0.092 0.338,0.165 0.518,0.221c0.014,-0 0.022,-0 0.022,-0.006Z" style="fill:#829bc6;fill-rule:nonzero;"/><path d="M41.062,40.484c0.02,-0.019 -0.033,-0.106 -0.115,-0.187c-0.081,-0.084 -0.166,-0.135 -0.183,-0.115c-0.014,0.017 0.014,0.073 0.068,0.137c0.059,0.056 0.118,0.109 0.183,0.16c0.022,0.011 0.039,0.014 0.047,0.005Z" style="fill:#829bc6;fill-rule:nonzero;"/><path d="M40.699,40.164c0.026,-0.016 -0.039,-0.162 -0.146,-0.327c-0.104,-0.165 -0.211,-0.288 -0.233,-0.272c-0.011,0.009 -0,0.048 0.025,0.11c0.093,0.176 0.208,0.341 0.337,0.489c0.009,0.003 0.014,0.006 0.017,0.003l0,-0.003Z" style="fill:#829bc6;fill-rule:nonzero;"/><path d="M40.175,39.247c0,-0 0.014,-0.053 0.003,-0.109c-0.011,-0.059 -0.033,-0.101 -0.045,-0.098c-0.008,-0 -0.011,0.022 -0.011,0.05c0.011,0.05 0.025,0.098 0.039,0.148c0.006,0.006 0.009,0.012 0.014,0.009Z" style="fill:#829bc6;fill-rule:nonzero;"/><path d="M40.085,38.897c0,-0 0.009,0.008 0.012,0.008c0.028,0 0.053,-0.159 0.053,-0.355c0,-0.196 -0.022,-0.356 -0.053,-0.356c-0.012,0 -0.023,0.028 -0.034,0.079c-0.006,0.075 -0.011,0.148 -0.011,0.226c-0,0.135 0.011,0.269 0.031,0.398l0.002,-0Z" style="fill:#829bc6;fill-rule:nonzero;"/><path d="M40.139,37.93c0.028,0.009 0.082,-0.072 0.127,-0.182c0.042,-0.109 0.056,-0.204 0.028,-0.212c-0.02,-0.006 -0.054,0.036 -0.087,0.1c-0.031,0.087 -0.057,0.174 -0.079,0.263c-0,0.02 0.006,0.031 0.014,0.034l-0.003,-0.003Z" style="fill:#829bc6;fill-rule:nonzero;"/><path d="M40.839,36.7c0.017,0.022 0.11,-0.017 0.206,-0.087c0.095,-0.07 0.157,-0.143 0.14,-0.165c-0.011,-0.014 -0.056,-0 -0.115,0.028c-0.079,0.059 -0.155,0.123 -0.228,0.193c-0.005,0.011 -0.008,0.022 0,0.028l-0.003,0.003Z" style="fill:#829bc6;fill-rule:nonzero;"/><path d="M41.355,36.299c0.009,0.028 0.169,-0.006 0.355,-0.07c0.185,-0.067 0.328,-0.143 0.317,-0.171c-0.003,-0.011 -0.028,-0.011 -0.064,-0.008c-0.214,0.053 -0.416,0.134 -0.605,0.241l0,0.008l-0.003,-0Z" style="fill:#829bc6;fill-rule:nonzero;"/><path d="M42.097,36.038c-0,0.028 0.101,0.045 0.219,0.039c0.118,-0.005 0.211,-0.033 0.208,-0.061c-0,-0.017 -0.042,-0.031 -0.104,-0.037c-0.104,0.006 -0.205,0.02 -0.304,0.04c-0.011,0.008 -0.016,0.014 -0.016,0.022l-0.003,-0.003Z" style="fill:#829bc6;fill-rule:nonzero;"/><path d="M43.51,36.165c-0.011,0.025 0.062,0.092 0.163,0.148c0.101,0.059 0.197,0.084 0.208,0.059c0.008,-0.017 -0.025,-0.056 -0.079,-0.095c-0.084,-0.045 -0.171,-0.087 -0.261,-0.123c-0.014,-0 -0.025,-0 -0.031,0.008l-0,0.003Z" style="fill:#829bc6;fill-rule:nonzero;"/><path d="M44.264,36.728c0.14,0.137 0.27,0.232 0.289,0.213c0.009,-0.009 -0.002,-0.034 -0.028,-0.07c-0.137,-0.163 -0.295,-0.305 -0.469,-0.429l-0.009,0c-0.019,0.02 0.076,0.149 0.217,0.286Z" style="fill:#829bc6;fill-rule:nonzero;"/><path d="M32.364,42.641c0.748,-0.896 1.496,-1.097 1.496,-1.097c-0.582,-0.146 -1.557,0.431 -1.557,0.431c-0.293,-0.202 -0.402,-0.826 -0.45,-1.246c-0.172,-1.475 0.222,-3.151 0.222,-3.151c-0.995,2.477 -1.161,7.185 -1.161,7.185c3.235,-2.435 5.928,-2.312 5.928,-2.312c-1.391,-0.848 -4.118,0.064 -4.478,0.19Z" style="fill:#365888;fill-rule:nonzero;"/><path d="M54.75,40.47c-0.028,-0.635 -0.154,-1.259 -0.258,-1.889c-0.149,-0.621 -0.307,-1.246 -0.537,-1.85c-0.458,-1.204 -1.119,-2.363 -2.044,-3.289c-0.921,-0.927 -2.088,-1.587 -3.313,-1.892c1.076,0.666 2.023,1.441 2.771,2.376c0.734,0.943 1.296,2.004 1.709,3.132c0.298,0.778 0.526,1.585 0.717,2.407c0.064,0.577 0.129,1.173 0.177,1.669c0.039,0.403 0.05,0.713 -0.242,0.912c0,0 -1.4,-0.96 -1.982,-0.814c0,-0 0.748,0.204 1.496,1.097c-0.36,-0.126 -3.086,-1.039 -4.478,-0.191c0,0 2.696,-0.123 5.928,2.313c0,-0 0,-0.252 -0.011,-0.658c0.129,-1.1 0.171,-2.214 0.067,-3.323Z" style="fill:#365888;fill-rule:nonzero;"/><path d="M55.046,35.319l-0,0.011c0.006,0.017 0.014,0.031 0.02,0.048c-0.006,-0.02 -0.014,-0.04 -0.02,-0.059Z" style="fill:#863688;fill-rule:nonzero;"/><path d="M55.723,46.664l0.014,0.092c0.034,0.23 0.059,0.442 0.073,0.644c0.026,0.383 0.037,0.795 0.037,1.259c-0.014,0.91 -0.093,1.739 -0.233,2.534c-0.096,0.489 -0.2,0.898 -0.332,1.287c-0.065,0.19 -0.144,0.389 -0.236,0.593l-0,1.101l6.436,-0l0,-10.421l1.726,-0c1.408,-0 2.547,-0.202 3.418,-0.608c0.871,-0.406 1.47,-0.985 1.796,-1.741c0.326,-0.755 0.489,-1.959 0.489,-3.613l-0,-2.253c-0,-1.618 -0.084,-2.816 -0.253,-3.589c-0.169,-0.772 -0.489,-1.43 -0.964,-1.973c-0.475,-0.543 -1.183,-0.96 -2.125,-1.246c-0.942,-0.288 -2.291,-0.431 -4.042,-0.431l-6.484,0l-0,5.579c0.292,0.548 0.517,1.128 0.666,1.738c0.61,2.222 0.543,4.512 0.478,6.729c-0.025,0.859 -0.051,1.749 -0.037,2.617l-0.433,1.702l0.006,-0Zm7.808,-9.688c0,0.96 -0.115,1.59 -0.343,1.895c-0.23,0.303 -0.64,0.456 -1.231,0.456c-0.132,0 -0.289,-0.005 -0.475,-0.014l0,-6.586c0.835,0 1.386,0.132 1.65,0.401c0.264,0.266 0.397,0.842 0.397,1.724l-0,2.127l0.002,-0.003Z" style="fill:#365888;fill-rule:nonzero;"/><path d="M29.421,51.591c-0.205,-0.747 -0.342,-1.545 -0.435,-2.519c-0.034,-0.479 -0.048,-0.893 -0.045,-1.271c-0,-0.201 0.017,-0.414 0.039,-0.646l0.04,-0.367l-0.214,-0.135l-0.008,-0.142c-0.152,-2.374 0.123,-4.596 0.444,-6.642c0.241,-1.372 0.52,-2.713 0.938,-3.978l0,-7.663l-6.453,-0l0,9.278l-1.934,0l0,-9.278l-6.453,-0l-0,25.949l6.453,0l0,-10.899l1.934,-0l0,10.899l6.453,0l0,-0.725c-0.126,-0.204 -0.227,-0.417 -0.312,-0.599c-0.168,-0.38 -0.314,-0.792 -0.447,-1.262Z" style="fill:#365888;fill-rule:nonzero;"/><path d="M29.565,46.761c-0.078,-0.03 -0.157,-0.064 -0.233,-0.109c0.076,0.045 0.155,0.082 0.233,0.109Z" style="fill:#d52485;fill-rule:nonzero;"/></g></g></svg>